<?xml version="1.0" encoding="us-ascii" standalone="no"?><svg xmlns="http://www.w3.org/2000/svg" xmlns:xlink="http://www.w3.org/1999/xlink" contentStyleType="text/css" height="589px" preserveAspectRatio="none" style="width:992px;height:589px;background:#FFFFFF;" version="1.1" viewBox="0 0 992 589" width="992px" zoomAndPan="magnify"><defs/><g><!--class Nutmeg--><g id="elem_Nutmeg"><rect codeLine="3" fill="#F1F1F1" height="94.9219" id="Nutmeg" rx="2.5" ry="2.5" style="stroke:#181818;stroke-width:0.5;" width="131" x="317.5" y="7"/><ellipse cx="355.45" cy="23" fill="#ADD1B2" rx="11" ry="11" style="stroke:#181818;stroke-width:1.0;"/><path d="M358.2156,18.875 Q358.3719,18.6563 358.5594,18.5469 Q358.7469,18.4375 358.9656,18.4375 Q359.3406,18.4375 359.575,18.7031 Q359.8094,18.9531 359.8094,19.5625 L359.8094,21.0156 Q359.8094,21.625 359.575,21.8906 Q359.3406,22.1563 358.9656,22.1563 Q358.6219,22.1563 358.4188,21.9531 Q358.2156,21.7656 358.1063,21.25 Q358.0594,20.8906 357.8719,20.7031 Q357.5438,20.3281 356.9344,20.1094 Q356.325,19.8906 355.7,19.8906 Q354.9344,19.8906 354.2938,20.2188 Q353.6688,20.5469 353.1688,21.2969 Q352.6844,22.0469 352.6844,23.0781 L352.6844,24.1719 Q352.6844,25.4063 353.575,26.2344 Q354.4656,27.0469 356.0594,27.0469 Q356.9969,27.0469 357.6531,26.7969 Q358.0438,26.6406 358.4656,26.2031 Q358.7313,25.9375 358.8719,25.8594 Q359.0281,25.7813 359.2313,25.7813 Q359.5594,25.7813 359.8094,26.0469 Q360.075,26.2969 360.075,26.6406 Q360.075,26.9844 359.7313,27.3906 Q359.2313,27.9688 358.4344,28.2969 Q357.3563,28.75 356.0594,28.75 Q354.5438,28.75 353.3406,28.125 Q352.3563,27.625 351.6688,26.5625 Q350.9813,25.4844 350.9813,24.2031 L350.9813,23.0469 Q350.9813,21.7188 351.5906,20.5781 Q352.2156,19.4219 353.3094,18.8125 Q354.4031,18.1875 355.6375,18.1875 Q356.3719,18.1875 357.0125,18.3594 Q357.6688,18.5156 358.2156,18.875 Z " fill="#000000"/><text fill="#000000" font-family="sans-serif" font-size="14" lengthAdjust="spacing" textLength="48" x="374.55" y="27.8535">Nutmeg</text><line style="stroke:#181818;stroke-width:0.5;" x1="318.5" x2="447.5" y1="39" y2="39"/><rect fill="none" height="6" style="stroke:#C82930;stroke-width:1.0;" width="6" x="325.5" y="49.3203"/><text fill="#000000" font-family="sans-serif" font-size="14" lengthAdjust="spacing" textLength="96" x="337.5" y="55.6738">inputFile: FILE*</text><rect fill="none" height="6" style="stroke:#C82930;stroke-width:1.0;" width="6" x="325.5" y="64.9609"/><text fill="#000000" font-family="sans-serif" font-size="14" lengthAdjust="spacing" textLength="105" x="337.5" y="71.3145">outputFile: FILE*</text><line style="stroke:#181818;stroke-width:0.5;" x1="318.5" x2="447.5" y1="78.2813" y2="78.2813"/><ellipse cx="328.5" cy="91.6016" fill="#84BE84" rx="3" ry="3" style="stroke:#038048;stroke-width:1.0;"/><text fill="#000000" font-family="sans-serif" font-size="14" lengthAdjust="spacing" textLength="40" x="337.5" y="94.9551">main()</text></g><!--class Stage--><g id="elem_Stage"><rect codeLine="9" fill="#F1F1F1" height="188.7656" id="Stage" rx="2.5" ry="2.5" style="stroke:#181818;stroke-width:0.5;" width="147" x="389.5" y="162"/><ellipse cx="440.25" cy="178" fill="#ADD1B2" rx="11" ry="11" style="stroke:#181818;stroke-width:1.0;"/><path d="M443.0156,173.875 Q443.1719,173.6563 443.3594,173.5469 Q443.5469,173.4375 443.7656,173.4375 Q444.1406,173.4375 444.375,173.7031 Q444.6094,173.9531 444.6094,174.5625 L444.6094,176.0156 Q444.6094,176.625 444.375,176.8906 Q444.1406,177.1563 443.7656,177.1563 Q443.4219,177.1563 443.2188,176.9531 Q443.0156,176.7656 442.9063,176.25 Q442.8594,175.8906 442.6719,175.7031 Q442.3438,175.3281 441.7344,175.1094 Q441.125,174.8906 440.5,174.8906 Q439.7344,174.8906 439.0938,175.2188 Q438.4688,175.5469 437.9688,176.2969 Q437.4844,177.0469 437.4844,178.0781 L437.4844,179.1719 Q437.4844,180.4063 438.375,181.2344 Q439.2656,182.0469 440.8594,182.0469 Q441.7969,182.0469 442.4531,181.7969 Q442.8438,181.6406 443.2656,181.2031 Q443.5313,180.9375 443.6719,180.8594 Q443.8281,180.7813 444.0313,180.7813 Q444.3594,180.7813 444.6094,181.0469 Q444.875,181.2969 444.875,181.6406 Q444.875,181.9844 444.5313,182.3906 Q444.0313,182.9688 443.2344,183.2969 Q442.1563,183.75 440.8594,183.75 Q439.3438,183.75 438.1406,183.125 Q437.1563,182.625 436.4688,181.5625 Q435.7813,180.4844 435.7813,179.2031 L435.7813,178.0469 Q435.7813,176.7188 436.3906,175.5781 Q437.0156,174.4219 438.1094,173.8125 Q439.2031,173.1875 440.4375,173.1875 Q441.1719,173.1875 441.8125,173.3594 Q442.4688,173.5156 443.0156,173.875 Z " fill="#000000"/><text fill="#000000" font-family="sans-serif" font-size="14" lengthAdjust="spacing" textLength="37" x="460.75" y="182.8535">Stage</text><line style="stroke:#181818;stroke-width:0.5;" x1="390.5" x2="535.5" y1="194" y2="194"/><ellipse cx="400.5" cy="207.3203" fill="none" rx="3" ry="3" style="stroke:#038048;stroke-width:1.0;"/><text fill="#000000" font-family="sans-serif" font-size="14" lengthAdjust="spacing" textLength="121" x="409.5" y="210.6738">memory: int[65536]</text><ellipse cx="400.5" cy="222.9609" fill="none" rx="3" ry="3" style="stroke:#038048;stroke-width:1.0;"/><text fill="#000000" font-family="sans-serif" font-size="14" lengthAdjust="spacing" textLength="87" x="409.5" y="226.3145">register: int[8]</text><rect fill="none" height="6" style="stroke:#C82930;stroke-width:1.0;" width="6" x="397.5" y="235.6016"/><text fill="#000000" font-family="sans-serif" font-size="14" lengthAdjust="spacing" textLength="38" x="409.5" y="241.9551">pc: int</text><rect fill="none" height="6" style="stroke:#C82930;stroke-width:1.0;" width="6" x="397.5" y="251.2422"/><text fill="#000000" font-family="sans-serif" font-size="14" lengthAdjust="spacing" textLength="65" x="409.5" y="257.5957">nextPc: int</text><rect fill="none" height="6" style="stroke:#C82930;stroke-width:1.0;" width="6" x="397.5" y="266.8828"/><text fill="#000000" font-family="sans-serif" font-size="14" lengthAdjust="spacing" textLength="69" x="409.5" y="273.2363">isHalt: bool</text><line style="stroke:#181818;stroke-width:0.5;" x1="390.5" x2="535.5" y1="280.2031" y2="280.2031"/><ellipse cx="400.5" cy="293.5234" fill="#84BE84" rx="3" ry="3" style="stroke:#038048;stroke-width:1.0;"/><text fill="#000000" font-family="sans-serif" font-size="14" lengthAdjust="spacing" textLength="50" x="409.5" y="296.877">iterate()</text><ellipse cx="400.5" cy="309.1641" fill="#84BE84" rx="3" ry="3" style="stroke:#038048;stroke-width:1.0;"/><text fill="#000000" font-family="sans-serif" font-size="14" lengthAdjust="spacing" textLength="71" x="409.5" y="312.5176">printState()</text><ellipse cx="400.5" cy="324.8047" fill="#84BE84" rx="3" ry="3" style="stroke:#038048;stroke-width:1.0;"/><text fill="#000000" font-family="sans-serif" font-size="14" lengthAdjust="spacing" textLength="45" x="409.5" y="328.1582">setPc()</text><ellipse cx="400.5" cy="340.4453" fill="#84BE84" rx="3" ry="3" style="stroke:#038048;stroke-width:1.0;"/><text fill="#000000" font-family="sans-serif" font-size="14" lengthAdjust="spacing" textLength="53" x="409.5" y="343.7988">setHalt()</text></g><!--class Assembler--><g id="elem_Assembler"><rect codeLine="21" fill="#F1F1F1" height="94.9219" id="Assembler" rx="2.5" ry="2.5" style="stroke:#181818;stroke-width:0.5;" width="133" x="483.5" y="7"/><ellipse cx="514.25" cy="23" fill="#ADD1B2" rx="11" ry="11" style="stroke:#181818;stroke-width:1.0;"/><path d="M517.0156,18.875 Q517.1719,18.6563 517.3594,18.5469 Q517.5469,18.4375 517.7656,18.4375 Q518.1406,18.4375 518.375,18.7031 Q518.6094,18.9531 518.6094,19.5625 L518.6094,21.0156 Q518.6094,21.625 518.375,21.8906 Q518.1406,22.1563 517.7656,22.1563 Q517.4219,22.1563 517.2188,21.9531 Q517.0156,21.7656 516.9063,21.25 Q516.8594,20.8906 516.6719,20.7031 Q516.3438,20.3281 515.7344,20.1094 Q515.125,19.8906 514.5,19.8906 Q513.7344,19.8906 513.0938,20.2188 Q512.4688,20.5469 511.9688,21.2969 Q511.4844,22.0469 511.4844,23.0781 L511.4844,24.1719 Q511.4844,25.4063 512.375,26.2344 Q513.2656,27.0469 514.8594,27.0469 Q515.7969,27.0469 516.4531,26.7969 Q516.8438,26.6406 517.2656,26.2031 Q517.5313,25.9375 517.6719,25.8594 Q517.8281,25.7813 518.0313,25.7813 Q518.3594,25.7813 518.6094,26.0469 Q518.875,26.2969 518.875,26.6406 Q518.875,26.9844 518.5313,27.3906 Q518.0313,27.9688 517.2344,28.2969 Q516.1563,28.75 514.8594,28.75 Q513.3438,28.75 512.1406,28.125 Q511.1563,27.625 510.4688,26.5625 Q509.7813,25.4844 509.7813,24.2031 L509.7813,23.0469 Q509.7813,21.7188 510.3906,20.5781 Q511.0156,19.4219 512.1094,18.8125 Q513.2031,18.1875 514.4375,18.1875 Q515.1719,18.1875 515.8125,18.3594 Q516.4688,18.5156 517.0156,18.875 Z " fill="#000000"/><text fill="#000000" font-family="sans-serif" font-size="14" lengthAdjust="spacing" textLength="66" x="531.75" y="27.8535">Assembler</text><line style="stroke:#181818;stroke-width:0.5;" x1="484.5" x2="615.5" y1="39" y2="39"/><rect fill="none" height="6" style="stroke:#C82930;stroke-width:1.0;" width="6" x="491.5" y="49.3203"/><text fill="#000000" font-family="sans-serif" font-size="14" lengthAdjust="spacing" textLength="96" x="503.5" y="55.6738">inputFile: FILE*</text><rect fill="none" height="6" style="stroke:#C82930;stroke-width:1.0;" width="6" x="491.5" y="64.9609"/><text fill="#000000" font-family="sans-serif" font-size="14" lengthAdjust="spacing" textLength="105" x="503.5" y="71.3145">outputFile: FILE*</text><line style="stroke:#181818;stroke-width:0.5;" x1="484.5" x2="615.5" y1="78.2813" y2="78.2813"/><ellipse cx="494.5" cy="91.6016" fill="#84BE84" rx="3" ry="3" style="stroke:#038048;stroke-width:1.0;"/><text fill="#000000" font-family="sans-serif" font-size="14" lengthAdjust="spacing" textLength="107" x="503.5" y="94.9551">assemble(Stage)</text></g><!--class Decoder--><g id="elem_Decoder"><rect codeLine="27" fill="#F1F1F1" height="55.6406" id="Decoder" rx="2.5" ry="2.5" style="stroke:#181818;stroke-width:0.5;" width="122" x="402" y="411"/><ellipse cx="433.2" cy="427" fill="#ADD1B2" rx="11" ry="11" style="stroke:#181818;stroke-width:1.0;"/><path d="M435.9656,422.875 Q436.1219,422.6563 436.3094,422.5469 Q436.4969,422.4375 436.7156,422.4375 Q437.0906,422.4375 437.325,422.7031 Q437.5594,422.9531 437.5594,423.5625 L437.5594,425.0156 Q437.5594,425.625 437.325,425.8906 Q437.0906,426.1563 436.7156,426.1563 Q436.3719,426.1563 436.1688,425.9531 Q435.9656,425.7656 435.8563,425.25 Q435.8094,424.8906 435.6219,424.7031 Q435.2938,424.3281 434.6844,424.1094 Q434.075,423.8906 433.45,423.8906 Q432.6844,423.8906 432.0438,424.2188 Q431.4188,424.5469 430.9188,425.2969 Q430.4344,426.0469 430.4344,427.0781 L430.4344,428.1719 Q430.4344,429.4063 431.325,430.2344 Q432.2156,431.0469 433.8094,431.0469 Q434.7469,431.0469 435.4031,430.7969 Q435.7938,430.6406 436.2156,430.2031 Q436.4813,429.9375 436.6219,429.8594 Q436.7781,429.7813 436.9813,429.7813 Q437.3094,429.7813 437.5594,430.0469 Q437.825,430.2969 437.825,430.6406 Q437.825,430.9844 437.4813,431.3906 Q436.9813,431.9688 436.1844,432.2969 Q435.1063,432.75 433.8094,432.75 Q432.2938,432.75 431.0906,432.125 Q430.1063,431.625 429.4188,430.5625 Q428.7313,429.4844 428.7313,428.2031 L428.7313,427.0469 Q428.7313,425.7188 429.3406,424.5781 Q429.9656,423.4219 431.0594,422.8125 Q432.1531,422.1875 433.3875,422.1875 Q434.1219,422.1875 434.7625,422.3594 Q435.4188,422.5156 435.9656,422.875 Z " fill="#000000"/><text fill="#000000" font-family="sans-serif" font-size="14" lengthAdjust="spacing" textLength="54" x="450.8" y="431.8535">Decoder</text><line style="stroke:#181818;stroke-width:0.5;" x1="403" x2="523" y1="443" y2="443"/><ellipse cx="413" cy="456.3203" fill="#84BE84" rx="3" ry="3" style="stroke:#038048;stroke-width:1.0;"/><text fill="#000000" font-family="sans-serif" font-size="14" lengthAdjust="spacing" textLength="96" x="422" y="459.6738">execute(Stage)</text></g><!--class RInstructions--><g id="elem_RInstructions"><rect codeLine="32" fill="#F1F1F1" height="55.6406" id="RInstructions" rx="2.5" ry="2.5" style="stroke:#181818;stroke-width:0.5;" width="198" x="7" y="527"/><ellipse cx="60.75" cy="543" fill="#ADD1B2" rx="11" ry="11" style="stroke:#181818;stroke-width:1.0;"/><path d="M63.5156,538.875 Q63.6719,538.6563 63.8594,538.5469 Q64.0469,538.4375 64.2656,538.4375 Q64.6406,538.4375 64.875,538.7031 Q65.1094,538.9531 65.1094,539.5625 L65.1094,541.0156 Q65.1094,541.625 64.875,541.8906 Q64.6406,542.1563 64.2656,542.1563 Q63.9219,542.1563 63.7188,541.9531 Q63.5156,541.7656 63.4063,541.25 Q63.3594,540.8906 63.1719,540.7031 Q62.8438,540.3281 62.2344,540.1094 Q61.625,539.8906 61,539.8906 Q60.2344,539.8906 59.5938,540.2188 Q58.9688,540.5469 58.4688,541.2969 Q57.9844,542.0469 57.9844,543.0781 L57.9844,544.1719 Q57.9844,545.4063 58.875,546.2344 Q59.7656,547.0469 61.3594,547.0469 Q62.2969,547.0469 62.9531,546.7969 Q63.3438,546.6406 63.7656,546.2031 Q64.0313,545.9375 64.1719,545.8594 Q64.3281,545.7813 64.5313,545.7813 Q64.8594,545.7813 65.1094,546.0469 Q65.375,546.2969 65.375,546.6406 Q65.375,546.9844 65.0313,547.3906 Q64.5313,547.9688 63.7344,548.2969 Q62.6563,548.75 61.3594,548.75 Q59.8438,548.75 58.6406,548.125 Q57.6563,547.625 56.9688,546.5625 Q56.2813,545.4844 56.2813,544.2031 L56.2813,543.0469 Q56.2813,541.7188 56.8906,540.5781 Q57.5156,539.4219 58.6094,538.8125 Q59.7031,538.1875 60.9375,538.1875 Q61.6719,538.1875 62.3125,538.3594 Q62.9688,538.5156 63.5156,538.875 Z " fill="#000000"/><text fill="#000000" font-family="sans-serif" font-size="14" lengthAdjust="spacing" textLength="82" x="81.25" y="547.8535">RInstructions</text><line style="stroke:#181818;stroke-width:0.5;" x1="8" x2="204" y1="559" y2="559"/><ellipse cx="18" cy="572.3203" fill="#84BE84" rx="3" ry="3" style="stroke:#038048;stroke-width:1.0;"/><text fill="#000000" font-family="sans-serif" font-size="14" lengthAdjust="spacing" textLength="172" x="27" y="575.6738">executeR(Stage,op,rs,rt,rd)</text></g><!--class IInstructions--><g id="elem_IInstructions"><rect codeLine="36" fill="#F1F1F1" height="55.6406" id="IInstructions" rx="2.5" ry="2.5" style="stroke:#181818;stroke-width:0.5;" width="213" x="240.5" y="527"/><ellipse cx="305.25" cy="543" fill="#ADD1B2" rx="11" ry="11" style="stroke:#181818;stroke-width:1.0;"/><path d="M308.0156,538.875 Q308.1719,538.6563 308.3594,538.5469 Q308.5469,538.4375 308.7656,538.4375 Q309.1406,538.4375 309.375,538.7031 Q309.6094,538.9531 309.6094,539.5625 L309.6094,541.0156 Q309.6094,541.625 309.375,541.8906 Q309.1406,542.1563 308.7656,542.1563 Q308.4219,542.1563 308.2188,541.9531 Q308.0156,541.7656 307.9063,541.25 Q307.8594,540.8906 307.6719,540.7031 Q307.3438,540.3281 306.7344,540.1094 Q306.125,539.8906 305.5,539.8906 Q304.7344,539.8906 304.0938,540.2188 Q303.4688,540.5469 302.9688,541.2969 Q302.4844,542.0469 302.4844,543.0781 L302.4844,544.1719 Q302.4844,545.4063 303.375,546.2344 Q304.2656,547.0469 305.8594,547.0469 Q306.7969,547.0469 307.4531,546.7969 Q307.8438,546.6406 308.2656,546.2031 Q308.5313,545.9375 308.6719,545.8594 Q308.8281,545.7813 309.0313,545.7813 Q309.3594,545.7813 309.6094,546.0469 Q309.875,546.2969 309.875,546.6406 Q309.875,546.9844 309.5313,547.3906 Q309.0313,547.9688 308.2344,548.2969 Q307.1563,548.75 305.8594,548.75 Q304.3438,548.75 303.1406,548.125 Q302.1563,547.625 301.4688,546.5625 Q300.7813,545.4844 300.7813,544.2031 L300.7813,543.0469 Q300.7813,541.7188 301.3906,540.5781 Q302.0156,539.4219 303.1094,538.8125 Q304.2031,538.1875 305.4375,538.1875 Q306.1719,538.1875 306.8125,538.3594 Q307.4688,538.5156 308.0156,538.875 Z " fill="#000000"/><text fill="#000000" font-family="sans-serif" font-size="14" lengthAdjust="spacing" textLength="75" x="325.75" y="547.8535">IInstructions</text><line style="stroke:#181818;stroke-width:0.5;" x1="241.5" x2="452.5" y1="559" y2="559"/><ellipse cx="251.5" cy="572.3203" fill="#84BE84" rx="3" ry="3" style="stroke:#038048;stroke-width:1.0;"/><text fill="#000000" font-family="sans-serif" font-size="14" lengthAdjust="spacing" textLength="187" x="260.5" y="575.6738">executeI(Stage,op,rs,rt,offset)</text></g><!--class JInstructions--><g id="elem_JInstructions"><rect codeLine="40" fill="#F1F1F1" height="55.6406" id="JInstructions" rx="2.5" ry="2.5" style="stroke:#181818;stroke-width:0.5;" width="181" x="488.5" y="527"/><ellipse cx="535.75" cy="543" fill="#ADD1B2" rx="11" ry="11" style="stroke:#181818;stroke-width:1.0;"/><path d="M538.5156,538.875 Q538.6719,538.6563 538.8594,538.5469 Q539.0469,538.4375 539.2656,538.4375 Q539.6406,538.4375 539.875,538.7031 Q540.1094,538.9531 540.1094,539.5625 L540.1094,541.0156 Q540.1094,541.625 539.875,541.8906 Q539.6406,542.1563 539.2656,542.1563 Q538.9219,542.1563 538.7188,541.9531 Q538.5156,541.7656 538.4063,541.25 Q538.3594,540.8906 538.1719,540.7031 Q537.8438,540.3281 537.2344,540.1094 Q536.625,539.8906 536,539.8906 Q535.2344,539.8906 534.5938,540.2188 Q533.9688,540.5469 533.4688,541.2969 Q532.9844,542.0469 532.9844,543.0781 L532.9844,544.1719 Q532.9844,545.4063 533.875,546.2344 Q534.7656,547.0469 536.3594,547.0469 Q537.2969,547.0469 537.9531,546.7969 Q538.3438,546.6406 538.7656,546.2031 Q539.0313,545.9375 539.1719,545.8594 Q539.3281,545.7813 539.5313,545.7813 Q539.8594,545.7813 540.1094,546.0469 Q540.375,546.2969 540.375,546.6406 Q540.375,546.9844 540.0313,547.3906 Q539.5313,547.9688 538.7344,548.2969 Q537.6563,548.75 536.3594,548.75 Q534.8438,548.75 533.6406,548.125 Q532.6563,547.625 531.9688,546.5625 Q531.2813,545.4844 531.2813,544.2031 L531.2813,543.0469 Q531.2813,541.7188 531.8906,540.5781 Q532.5156,539.4219 533.6094,538.8125 Q534.7031,538.1875 535.9375,538.1875 Q536.6719,538.1875 537.3125,538.3594 Q537.9688,538.5156 538.5156,538.875 Z " fill="#000000"/><text fill="#000000" font-family="sans-serif" font-size="14" lengthAdjust="spacing" textLength="78" x="556.25" y="547.8535">JInstructions</text><line style="stroke:#181818;stroke-width:0.5;" x1="489.5" x2="668.5" y1="559" y2="559"/><ellipse cx="499.5" cy="572.3203" fill="#84BE84" rx="3" ry="3" style="stroke:#038048;stroke-width:1.0;"/><text fill="#000000" font-family="sans-serif" font-size="14" lengthAdjust="spacing" textLength="155" x="508.5" y="575.6738">executeJ(Stage,op,rs,rd)</text></g><!--class OInstructions--><g id="elem_OInstructions"><rect codeLine="44" fill="#F1F1F1" height="55.6406" id="OInstructions" rx="2.5" ry="2.5" style="stroke:#181818;stroke-width:0.5;" width="133" x="704.5" y="527"/><ellipse cx="727.6" cy="543" fill="#ADD1B2" rx="11" ry="11" style="stroke:#181818;stroke-width:1.0;"/><path d="M730.3656,538.875 Q730.5219,538.6563 730.7094,538.5469 Q730.8969,538.4375 731.1156,538.4375 Q731.4906,538.4375 731.725,538.7031 Q731.9594,538.9531 731.9594,539.5625 L731.9594,541.0156 Q731.9594,541.625 731.725,541.8906 Q731.4906,542.1563 731.1156,542.1563 Q730.7719,542.1563 730.5688,541.9531 Q730.3656,541.7656 730.2563,541.25 Q730.2094,540.8906 730.0219,540.7031 Q729.6938,540.3281 729.0844,540.1094 Q728.475,539.8906 727.85,539.8906 Q727.0844,539.8906 726.4438,540.2188 Q725.8188,540.5469 725.3188,541.2969 Q724.8344,542.0469 724.8344,543.0781 L724.8344,544.1719 Q724.8344,545.4063 725.725,546.2344 Q726.6156,547.0469 728.2094,547.0469 Q729.1469,547.0469 729.8031,546.7969 Q730.1938,546.6406 730.6156,546.2031 Q730.8813,545.9375 731.0219,545.8594 Q731.1781,545.7813 731.3813,545.7813 Q731.7094,545.7813 731.9594,546.0469 Q732.225,546.2969 732.225,546.6406 Q732.225,546.9844 731.8813,547.3906 Q731.3813,547.9688 730.5844,548.2969 Q729.5063,548.75 728.2094,548.75 Q726.6938,548.75 725.4906,548.125 Q724.5063,547.625 723.8188,546.5625 Q723.1313,545.4844 723.1313,544.2031 L723.1313,543.0469 Q723.1313,541.7188 723.7406,540.5781 Q724.3656,539.4219 725.4594,538.8125 Q726.5531,538.1875 727.7875,538.1875 Q728.5219,538.1875 729.1625,538.3594 Q729.8188,538.5156 730.3656,538.875 Z " fill="#000000"/><text fill="#000000" font-family="sans-serif" font-size="14" lengthAdjust="spacing" textLength="83" x="743.4" y="547.8535">OInstructions</text><line style="stroke:#181818;stroke-width:0.5;" x1="705.5" x2="836.5" y1="559" y2="559"/><ellipse cx="715.5" cy="572.3203" fill="#84BE84" rx="3" ry="3" style="stroke:#038048;stroke-width:1.0;"/><text fill="#000000" font-family="sans-serif" font-size="14" lengthAdjust="spacing" textLength="107" x="724.5" y="575.6738">executeO(Stage)</text></g><!--class UndefinedLabel--><g id="elem_UndefinedLabel"><rect codeLine="49" fill="#F1F1F1" height="32" id="UndefinedLabel" rx="2.5" ry="2.5" style="stroke:#181818;stroke-width:0.5;" width="131" x="658.5" y="38.5"/><ellipse cx="673.5" cy="54.5" fill="#D94321" rx="11" ry="11" style="stroke:#181818;stroke-width:1.0;"/><path d="M675.2188,54.375 L678.0625,57.7969 Q678.5625,57.8125 678.8125,58.0469 Q679.0625,58.2813 679.0625,58.6563 Q679.0625,59.0313 678.7969,59.2656 Q678.5469,59.5 677.9375,59.5 L676.0156,59.5 Q675.4063,59.5 675.1406,59.2656 Q674.8906,59.0313 674.8906,58.6406 Q674.8906,58.2813 675.125,58.0469 Q675.3594,57.8125 675.8438,57.7969 L674.1406,55.6875 L672.4063,57.7969 Q672.8906,57.8125 673.125,58.0625 Q673.3594,58.2969 673.3594,58.6563 Q673.3594,59.0313 673.0938,59.2656 Q672.8438,59.5 672.2344,59.5 L670.3125,59.5 Q669.7031,59.5 669.4375,59.2656 Q669.1875,59.0313 669.1875,58.6406 Q669.1875,58.2813 669.4375,58.0469 Q669.7031,57.7969 670.2031,57.7969 L673.0156,54.3594 L670.3281,51.1406 Q669.8281,51.125 669.5781,50.8906 Q669.3438,50.6563 669.3438,50.2813 Q669.3438,49.9063 669.5938,49.6719 Q669.8594,49.4375 670.4844,49.4375 L672.0469,49.4375 Q672.6563,49.4375 672.9219,49.6719 Q673.1875,49.9063 673.1875,50.2813 Q673.1875,50.5625 673.0156,50.7969 Q672.9063,50.9375 672.5313,51.1406 L674.125,53.0469 L675.6719,51.1406 Q675.2969,50.9375 675.1875,50.7969 Q675.0313,50.5625 675.0313,50.2813 Q675.0313,49.9063 675.2813,49.6719 Q675.5469,49.4375 676.1563,49.4375 L677.7188,49.4375 Q678.3438,49.4375 678.5938,49.6719 Q678.8594,49.9063 678.8594,50.2813 Q678.8594,50.6563 678.6094,50.8906 Q678.3594,51.125 677.875,51.1406 L675.2188,54.375 Z " fill="#000000"/><text fill="#000000" font-family="sans-serif" font-size="14" lengthAdjust="spacing" textLength="99" x="687.5" y="59.3535">UndefinedLabel</text></g><!--class DuplicatedLabel--><g id="elem_DuplicatedLabel"><rect codeLine="50" fill="#F1F1F1" height="32" id="DuplicatedLabel" rx="2.5" ry="2.5" style="stroke:#181818;stroke-width:0.5;" width="134" x="825" y="38.5"/><ellipse cx="840" cy="54.5" fill="#D94321" rx="11" ry="11" style="stroke:#181818;stroke-width:1.0;"/><path d="M841.7188,54.375 L844.5625,57.7969 Q845.0625,57.8125 845.3125,58.0469 Q845.5625,58.2813 845.5625,58.6563 Q845.5625,59.0313 845.2969,59.2656 Q845.0469,59.5 844.4375,59.5 L842.5156,59.5 Q841.9063,59.5 841.6406,59.2656 Q841.3906,59.0313 841.3906,58.6406 Q841.3906,58.2813 841.625,58.0469 Q841.8594,57.8125 842.3438,57.7969 L840.6406,55.6875 L838.9063,57.7969 Q839.3906,57.8125 839.625,58.0625 Q839.8594,58.2969 839.8594,58.6563 Q839.8594,59.0313 839.5938,59.2656 Q839.3438,59.5 838.7344,59.5 L836.8125,59.5 Q836.2031,59.5 835.9375,59.2656 Q835.6875,59.0313 835.6875,58.6406 Q835.6875,58.2813 835.9375,58.0469 Q836.2031,57.7969 836.7031,57.7969 L839.5156,54.3594 L836.8281,51.1406 Q836.3281,51.125 836.0781,50.8906 Q835.8438,50.6563 835.8438,50.2813 Q835.8438,49.9063 836.0938,49.6719 Q836.3594,49.4375 836.9844,49.4375 L838.5469,49.4375 Q839.1563,49.4375 839.4219,49.6719 Q839.6875,49.9063 839.6875,50.2813 Q839.6875,50.5625 839.5156,50.7969 Q839.4063,50.9375 839.0313,51.1406 L840.625,53.0469 L842.1719,51.1406 Q841.7969,50.9375 841.6875,50.7969 Q841.5313,50.5625 841.5313,50.2813 Q841.5313,49.9063 841.7813,49.6719 Q842.0469,49.4375 842.6563,49.4375 L844.2188,49.4375 Q844.8438,49.4375 845.0938,49.6719 Q845.3594,49.9063 845.3594,50.2813 Q845.3594,50.6563 845.1094,50.8906 Q844.8594,51.125 844.375,51.1406 L841.7188,54.375 Z " fill="#000000"/><text fill="#000000" font-family="sans-serif" font-size="14" lengthAdjust="spacing" textLength="102" x="854" y="59.3535">DuplicatedLabel</text></g><!--class OverflowingOffset--><g id="elem_OverflowingOffset"><rect codeLine="51" fill="#F1F1F1" height="32" id="OverflowingOffset" rx="2.5" ry="2.5" style="stroke:#181818;stroke-width:0.5;" width="144" x="652" y="240.5"/><ellipse cx="667" cy="256.5" fill="#D94321" rx="11" ry="11" style="stroke:#181818;stroke-width:1.0;"/><path d="M668.7188,256.375 L671.5625,259.7969 Q672.0625,259.8125 672.3125,260.0469 Q672.5625,260.2813 672.5625,260.6563 Q672.5625,261.0313 672.2969,261.2656 Q672.0469,261.5 671.4375,261.5 L669.5156,261.5 Q668.9063,261.5 668.6406,261.2656 Q668.3906,261.0313 668.3906,260.6406 Q668.3906,260.2813 668.625,260.0469 Q668.8594,259.8125 669.3438,259.7969 L667.6406,257.6875 L665.9063,259.7969 Q666.3906,259.8125 666.625,260.0625 Q666.8594,260.2969 666.8594,260.6563 Q666.8594,261.0313 666.5938,261.2656 Q666.3438,261.5 665.7344,261.5 L663.8125,261.5 Q663.2031,261.5 662.9375,261.2656 Q662.6875,261.0313 662.6875,260.6406 Q662.6875,260.2813 662.9375,260.0469 Q663.2031,259.7969 663.7031,259.7969 L666.5156,256.3594 L663.8281,253.1406 Q663.3281,253.125 663.0781,252.8906 Q662.8438,252.6563 662.8438,252.2813 Q662.8438,251.9063 663.0938,251.6719 Q663.3594,251.4375 663.9844,251.4375 L665.5469,251.4375 Q666.1563,251.4375 666.4219,251.6719 Q666.6875,251.9063 666.6875,252.2813 Q666.6875,252.5625 666.5156,252.7969 Q666.4063,252.9375 666.0313,253.1406 L667.625,255.0469 L669.1719,253.1406 Q668.7969,252.9375 668.6875,252.7969 Q668.5313,252.5625 668.5313,252.2813 Q668.5313,251.9063 668.7813,251.6719 Q669.0469,251.4375 669.6563,251.4375 L671.2188,251.4375 Q671.8438,251.4375 672.0938,251.6719 Q672.3594,251.9063 672.3594,252.2813 Q672.3594,252.6563 672.1094,252.8906 Q671.8594,253.125 671.375,253.1406 L668.7188,256.375 Z " fill="#000000"/><text fill="#000000" font-family="sans-serif" font-size="14" lengthAdjust="spacing" textLength="112" x="681" y="261.3535">OverflowingOffset</text></g><!--class UnknownInstruction--><g id="elem_UnknownInstruction"><rect codeLine="52" fill="#F1F1F1" height="32" id="UnknownInstruction" rx="2.5" ry="2.5" style="stroke:#181818;stroke-width:0.5;" width="154" x="831" y="240.5"/><ellipse cx="846" cy="256.5" fill="#D94321" rx="11" ry="11" style="stroke:#181818;stroke-width:1.0;"/><path d="M847.7188,256.375 L850.5625,259.7969 Q851.0625,259.8125 851.3125,260.0469 Q851.5625,260.2813 851.5625,260.6563 Q851.5625,261.0313 851.2969,261.2656 Q851.0469,261.5 850.4375,261.5 L848.5156,261.5 Q847.9063,261.5 847.6406,261.2656 Q847.3906,261.0313 847.3906,260.6406 Q847.3906,260.2813 847.625,260.0469 Q847.8594,259.8125 848.3438,259.7969 L846.6406,257.6875 L844.9063,259.7969 Q845.3906,259.8125 845.625,260.0625 Q845.8594,260.2969 845.8594,260.6563 Q845.8594,261.0313 845.5938,261.2656 Q845.3438,261.5 844.7344,261.5 L842.8125,261.5 Q842.2031,261.5 841.9375,261.2656 Q841.6875,261.0313 841.6875,260.6406 Q841.6875,260.2813 841.9375,260.0469 Q842.2031,259.7969 842.7031,259.7969 L845.5156,256.3594 L842.8281,253.1406 Q842.3281,253.125 842.0781,252.8906 Q841.8438,252.6563 841.8438,252.2813 Q841.8438,251.9063 842.0938,251.6719 Q842.3594,251.4375 842.9844,251.4375 L844.5469,251.4375 Q845.1563,251.4375 845.4219,251.6719 Q845.6875,251.9063 845.6875,252.2813 Q845.6875,252.5625 845.5156,252.7969 Q845.4063,252.9375 845.0313,253.1406 L846.625,255.0469 L848.1719,253.1406 Q847.7969,252.9375 847.6875,252.7969 Q847.5313,252.5625 847.5313,252.2813 Q847.5313,251.9063 847.7813,251.6719 Q848.0469,251.4375 848.6563,251.4375 L850.2188,251.4375 Q850.8438,251.4375 851.0938,251.6719 Q851.3594,251.9063 851.3594,252.2813 Q851.3594,252.6563 851.1094,252.8906 Q850.8594,253.125 850.375,253.1406 L847.7188,256.375 Z " fill="#000000"/><text fill="#000000" font-family="sans-serif" font-size="14" lengthAdjust="spacing" textLength="122" x="860" y="261.3535">UnknownInstruction</text></g><!--link Nutmeg to Stage--><g id="link_Nutmeg_Stage"><path codeLine="63" d="M401.66,102.14 C408.25,118.63 415.95,137.86 423.61,157.02 " fill="none" id="Nutmeg-to-Stage" style="stroke:#181818;stroke-width:1.0;"/><polygon fill="#181818" points="425.56,161.89,425.9314,152.0481,423.703,157.2476,418.5036,155.0193,425.56,161.89" style="stroke:#181818;stroke-width:1.0;"/></g><!--link Nutmeg to Assembler--><g id="link_Nutmeg_Assembler"><path codeLine="64" d="M448.56,54.5 C458.46,54.5 468.36,54.5 478.25,54.5 " fill="none" id="Nutmeg-to-Assembler" style="stroke:#181818;stroke-width:1.0;"/><polygon fill="#181818" points="483.43,54.5,474.43,50.5,478.43,54.5,474.43,58.5,483.43,54.5" style="stroke:#181818;stroke-width:1.0;"/></g><!--link Assembler to Stage--><g id="link_Assembler_Stage"><path codeLine="65" d="M529.71,102.14 C522.54,118.63 514.17,137.86 505.84,157.02 " fill="none" id="Assembler-to-Stage" style="stroke:#181818;stroke-width:1.0;stroke-dasharray:7.0,7.0;"/><polygon fill="#181818" points="503.72,161.89,510.9669,155.2205,505.7068,157.3017,503.6257,152.0416,503.72,161.89" style="stroke:#181818;stroke-width:1.0;"/></g><!--link Stage to Decoder--><g id="link_Stage_Decoder"><path codeLine="67" d="M463,351.19 C463,370.78 463,390.15 463,405.61 " fill="none" id="Stage-to-Decoder" style="stroke:#181818;stroke-width:1.0;"/><polygon fill="#181818" points="463,410.69,467,401.69,463,405.69,459,401.69,463,410.69" style="stroke:#181818;stroke-width:1.0;"/></g><!--link Decoder to RInstructions--><g id="link_Decoder_RInstructions"><path codeLine="68" d="M401.63,459.6 C344.89,477.71 259.9,504.86 195.58,525.39 " fill="none" id="Decoder-to-RInstructions" style="stroke:#181818;stroke-width:1.0;"/><polygon fill="#181818" points="190.6,526.99,200.3893,528.0717,195.3644,525.4734,197.9627,520.4486,190.6,526.99" style="stroke:#181818;stroke-width:1.0;"/></g><!--link Decoder to IInstructions--><g id="link_Decoder_IInstructions"><path codeLine="69" d="M435.51,467.02 C418.44,483.79 396.45,505.4 378.66,522.89 " fill="none" id="Decoder-to-IInstructions" style="stroke:#181818;stroke-width:1.0;"/><polygon fill="#181818" points="374.7,526.78,383.9206,523.3187,378.2639,523.2731,378.3095,517.6164,374.7,526.78" style="stroke:#181818;stroke-width:1.0;"/></g><!--link Decoder to JInstructions--><g id="link_Decoder_JInstructions"><path codeLine="70" d="M490.49,467.02 C507.56,483.79 529.55,505.4 547.34,522.89 " fill="none" id="Decoder-to-JInstructions" style="stroke:#181818;stroke-width:1.0;"/><polygon fill="#181818" points="551.3,526.78,547.6905,517.6164,547.7361,523.2731,542.0794,523.3187,551.3,526.78" style="stroke:#181818;stroke-width:1.0;"/></g><!--link Decoder to OInstructions--><g id="link_Decoder_OInstructions"><path codeLine="71" d="M524.22,462.66 C574.71,481.35 646.42,507.89 699.53,527.55 " fill="none" id="Decoder-to-OInstructions" style="stroke:#181818;stroke-width:1.0;"/><polygon fill="#181818" points="704.29,529.31,697.2491,522.4234,699.6037,527.5669,694.4601,529.9215,704.29,529.31" style="stroke:#181818;stroke-width:1.0;"/></g><!--reverse link Stage to RInstructions--><g id="link_Stage_RInstructions"><path codeLine="73" d="M385.37,321.98 C308.41,385.9 194.2,480.75 138.68,526.86 " fill="none" id="Stage-backto-RInstructions" style="stroke:#181818;stroke-width:1.0;stroke-dasharray:7.0,7.0;"/><polygon fill="#181818" points="389.46,318.58,379.9736,321.2272,385.6049,321.764,385.068,327.3954,389.46,318.58" style="stroke:#181818;stroke-width:1.0;"/></g><!--reverse link Stage to JInstructions--><g id="link_Stage_JInstructions"><path codeLine="74" d="M516.7,355.65 C525.51,373.76 534.02,392.72 541,411 C555.99,450.23 567.33,497.68 573.57,526.85 " fill="none" id="Stage-backto-JInstructions" style="stroke:#181818;stroke-width:1.0;stroke-dasharray:7.0,7.0;"/><polygon fill="#181818" points="514.46,351.07,514.8317,360.9118,516.6617,355.5592,522.0144,357.3891,514.46,351.07" style="stroke:#181818;stroke-width:1.0;"/></g><!--reverse link Stage to IInstructions--><g id="link_Stage_IInstructions"><path codeLine="75" d="M408.28,355.95 C399.45,373.95 390.94,392.8 384,411 C369.06,450.18 358.11,497.64 352.15,526.83 " fill="none" id="Stage-backto-IInstructions" style="stroke:#181818;stroke-width:1.0;stroke-dasharray:7.0,7.0;"/><polygon fill="#181818" points="410.53,351.39,402.9595,357.6897,408.3168,355.8735,410.1331,361.2309,410.53,351.39" style="stroke:#181818;stroke-width:1.0;"/></g><!--reverse link Stage to OInstructions--><g id="link_Stage_OInstructions"><path codeLine="76" d="M540.68,332.28 C606.62,395.76 697.53,483.27 742.89,526.94 " fill="none" id="Stage-backto-OInstructions" style="stroke:#181818;stroke-width:1.0;stroke-dasharray:7.0,7.0;"/><polygon fill="#181818" points="536.77,328.52,540.4721,337.6466,540.3692,331.9907,546.0251,331.8878,536.77,328.52" style="stroke:#181818;stroke-width:1.0;"/></g><!--SRC=[dPJ1Rfmm48RlVWhVcdGNzX0bgbPLfKff551KgbGvLJruOM2j6XlPGx9LrNUl5mDhmxA7Sfl_d_bcR8rvjqTip7QpQGIJsDOYpbMzoGKp9YeugpIh2Ub2-hN56YhwXr3xHPJBfiK7Bc1B7vAdB-zxMRLuHb_LZCkhQ_9tW7r7La7FMjLGA_rxQv7uu-xszkRkfzCrLDmWQETyS6hKv5ti0Wa7_EOBt3moWLkwKqeu2hS4Xc2xTs6ZRQvjVr8CM8GN707-h9-DWNedGF_dsIdh0LVTgJtoFUIg6BahE43UefUsvmMCIIK7KGoLpuaqgDiSkP9cKl_i06lLhBLPQrphOeI5TGxfYCa5OZ8bghAq5pLIaqLgUe6QXjJJaEaYBhk0ooRtbfsX43Zaq1mL-Y8BABc4uedjG7Z6VTi8djlzc3dPA-XIg3SkgwoxW03tIwetwVLqKuHj-Z7EEJNWNlNMP0I_QchvPRFv_CAvwPVEnmz7dRbzCI7zRo7IlDfZzCczx9awlY5oUaqqZeTqulu7aStirvqCQt_KWgqDd6JHIHUTO366rX_ZUDBcfASBUhAW1mt-0G00]--></g></svg>