<?xml version="1.0" encoding="us-ascii" standalone="no"?><svg xmlns="http://www.w3.org/2000/svg" xmlns:xlink="http://www.w3.org/1999/xlink" contentStyleType="text/css" height="604px" preserveAspectRatio="none" style="width:1125px;height:604px;background:#FFFFFF;" version="1.1" viewBox="0 0 1125 604" width="1125px" zoomAndPan="magnify"><defs/><g><!--class Simulator--><g id="elem_Simulator"><rect codeLine="3" fill="#F1F1F1" height="94.9219" id="Simulator" rx="2.5" ry="2.5" style="stroke:#181818;stroke-width:0.5;" width="143" x="391.5" y="7"/><ellipse cx="429.9" cy="23" fill="#ADD1B2" rx="11" ry="11" style="stroke:#181818;stroke-width:1.0;"/><path d="M432.6656,18.875 Q432.8219,18.6563 433.0094,18.5469 Q433.1969,18.4375 433.4156,18.4375 Q433.7906,18.4375 434.025,18.7031 Q434.2594,18.9531 434.2594,19.5625 L434.2594,21.0156 Q434.2594,21.625 434.025,21.8906 Q433.7906,22.1563 433.4156,22.1563 Q433.0719,22.1563 432.8688,21.9531 Q432.6656,21.7656 432.5563,21.25 Q432.5094,20.8906 432.3219,20.7031 Q431.9938,20.3281 431.3844,20.1094 Q430.775,19.8906 430.15,19.8906 Q429.3844,19.8906 428.7438,20.2188 Q428.1188,20.5469 427.6188,21.2969 Q427.1344,22.0469 427.1344,23.0781 L427.1344,24.1719 Q427.1344,25.4063 428.025,26.2344 Q428.9156,27.0469 430.5094,27.0469 Q431.4469,27.0469 432.1031,26.7969 Q432.4938,26.6406 432.9156,26.2031 Q433.1813,25.9375 433.3219,25.8594 Q433.4781,25.7813 433.6813,25.7813 Q434.0094,25.7813 434.2594,26.0469 Q434.525,26.2969 434.525,26.6406 Q434.525,26.9844 434.1813,27.3906 Q433.6813,27.9688 432.8844,28.2969 Q431.8063,28.75 430.5094,28.75 Q428.9938,28.75 427.7906,28.125 Q426.8063,27.625 426.1188,26.5625 Q425.4313,25.4844 425.4313,24.2031 L425.4313,23.0469 Q425.4313,21.7188 426.0406,20.5781 Q426.6656,19.4219 427.7594,18.8125 Q428.8531,18.1875 430.0875,18.1875 Q430.8219,18.1875 431.4625,18.3594 Q432.1188,18.5156 432.6656,18.875 Z " fill="#000000"/><text fill="#000000" font-family="sans-serif" font-size="14" lengthAdjust="spacing" textLength="59" x="449.1" y="27.8535">Simulator</text><line style="stroke:#181818;stroke-width:0.5;" x1="392.5" x2="533.5" y1="39" y2="39"/><rect fill="none" height="6" style="stroke:#C82930;stroke-width:1.0;" width="6" x="399.5" y="49.3203"/><text fill="#000000" font-family="sans-serif" font-size="14" lengthAdjust="spacing" textLength="85" x="411.5" y="55.6738">inputFile: File</text><rect fill="none" height="6" style="stroke:#C82930;stroke-width:1.0;" width="6" x="399.5" y="64.9609"/><text fill="#000000" font-family="sans-serif" font-size="14" lengthAdjust="spacing" textLength="94" x="411.5" y="71.3145">outputFile: File</text><line style="stroke:#181818;stroke-width:0.5;" x1="392.5" x2="533.5" y1="78.2813" y2="78.2813"/><ellipse cx="402.5" cy="91.6016" fill="#84BE84" rx="3" ry="3" style="stroke:#038048;stroke-width:1.0;"/><text fill="#000000" font-family="sans-serif" font-size="14" lengthAdjust="spacing" textLength="117" x="411.5" y="94.9551">main(String[] args)</text></g><!--class Stage--><g id="elem_Stage"><rect codeLine="9" fill="#F1F1F1" height="204.4063" id="Stage" rx="2.5" ry="2.5" style="stroke:#181818;stroke-width:0.5;" width="147" x="389.5" y="162"/><ellipse cx="440.25" cy="178" fill="#ADD1B2" rx="11" ry="11" style="stroke:#181818;stroke-width:1.0;"/><path d="M443.0156,173.875 Q443.1719,173.6563 443.3594,173.5469 Q443.5469,173.4375 443.7656,173.4375 Q444.1406,173.4375 444.375,173.7031 Q444.6094,173.9531 444.6094,174.5625 L444.6094,176.0156 Q444.6094,176.625 444.375,176.8906 Q444.1406,177.1563 443.7656,177.1563 Q443.4219,177.1563 443.2188,176.9531 Q443.0156,176.7656 442.9063,176.25 Q442.8594,175.8906 442.6719,175.7031 Q442.3438,175.3281 441.7344,175.1094 Q441.125,174.8906 440.5,174.8906 Q439.7344,174.8906 439.0938,175.2188 Q438.4688,175.5469 437.9688,176.2969 Q437.4844,177.0469 437.4844,178.0781 L437.4844,179.1719 Q437.4844,180.4063 438.375,181.2344 Q439.2656,182.0469 440.8594,182.0469 Q441.7969,182.0469 442.4531,181.7969 Q442.8438,181.6406 443.2656,181.2031 Q443.5313,180.9375 443.6719,180.8594 Q443.8281,180.7813 444.0313,180.7813 Q444.3594,180.7813 444.6094,181.0469 Q444.875,181.2969 444.875,181.6406 Q444.875,181.9844 444.5313,182.3906 Q444.0313,182.9688 443.2344,183.2969 Q442.1563,183.75 440.8594,183.75 Q439.3438,183.75 438.1406,183.125 Q437.1563,182.625 436.4688,181.5625 Q435.7813,180.4844 435.7813,179.2031 L435.7813,178.0469 Q435.7813,176.7188 436.3906,175.5781 Q437.0156,174.4219 438.1094,173.8125 Q439.2031,173.1875 440.4375,173.1875 Q441.1719,173.1875 441.8125,173.3594 Q442.4688,173.5156 443.0156,173.875 Z " fill="#000000"/><text fill="#000000" font-family="sans-serif" font-size="14" lengthAdjust="spacing" textLength="37" x="460.75" y="182.8535">Stage</text><line style="stroke:#181818;stroke-width:0.5;" x1="390.5" x2="535.5" y1="194" y2="194"/><ellipse cx="400.5" cy="207.3203" fill="none" rx="3" ry="3" style="stroke:#038048;stroke-width:1.0;"/><text fill="#000000" font-family="sans-serif" font-size="14" lengthAdjust="spacing" textLength="121" x="409.5" y="210.6738">memory: int[65536]</text><ellipse cx="400.5" cy="222.9609" fill="none" rx="3" ry="3" style="stroke:#038048;stroke-width:1.0;"/><text fill="#000000" font-family="sans-serif" font-size="14" lengthAdjust="spacing" textLength="87" x="409.5" y="226.3145">register: int[8]</text><rect fill="none" height="6" style="stroke:#C82930;stroke-width:1.0;" width="6" x="397.5" y="235.6016"/><text fill="#000000" font-family="sans-serif" font-size="14" lengthAdjust="spacing" textLength="38" x="409.5" y="241.9551">pc: int</text><rect fill="none" height="6" style="stroke:#C82930;stroke-width:1.0;" width="6" x="397.5" y="251.2422"/><text fill="#000000" font-family="sans-serif" font-size="14" lengthAdjust="spacing" textLength="65" x="409.5" y="257.5957">nextPc: int</text><rect fill="none" height="6" style="stroke:#C82930;stroke-width:1.0;" width="6" x="397.5" y="266.8828"/><text fill="#000000" font-family="sans-serif" font-size="14" lengthAdjust="spacing" textLength="69" x="409.5" y="273.2363">isHalt: bool</text><line style="stroke:#181818;stroke-width:0.5;" x1="390.5" x2="535.5" y1="280.2031" y2="280.2031"/><ellipse cx="400.5" cy="293.5234" fill="#84BE84" rx="3" ry="3" style="stroke:#038048;stroke-width:1.0;"/><text fill="#000000" font-family="sans-serif" font-size="14" lengthAdjust="spacing" textLength="62" x="409.5" y="296.877">simulate()</text><ellipse cx="400.5" cy="309.1641" fill="#84BE84" rx="3" ry="3" style="stroke:#038048;stroke-width:1.0;"/><text fill="#000000" font-family="sans-serif" font-size="14" lengthAdjust="spacing" textLength="50" x="409.5" y="312.5176">iterate()</text><ellipse cx="400.5" cy="324.8047" fill="#84BE84" rx="3" ry="3" style="stroke:#038048;stroke-width:1.0;"/><text fill="#000000" font-family="sans-serif" font-size="14" lengthAdjust="spacing" textLength="71" x="409.5" y="328.1582">printState()</text><ellipse cx="400.5" cy="340.4453" fill="#84BE84" rx="3" ry="3" style="stroke:#038048;stroke-width:1.0;"/><text fill="#000000" font-family="sans-serif" font-size="14" lengthAdjust="spacing" textLength="45" x="409.5" y="343.7988">setPc()</text><ellipse cx="400.5" cy="356.0859" fill="#84BE84" rx="3" ry="3" style="stroke:#038048;stroke-width:1.0;"/><text fill="#000000" font-family="sans-serif" font-size="14" lengthAdjust="spacing" textLength="53" x="409.5" y="359.4395">setHalt()</text></g><!--class Assembler--><g id="elem_Assembler"><rect codeLine="22" fill="#F1F1F1" height="71.2813" id="Assembler" rx="2.5" ry="2.5" style="stroke:#181818;stroke-width:0.5;" width="187" x="569.5" y="19"/><ellipse cx="625.75" cy="35" fill="#ADD1B2" rx="11" ry="11" style="stroke:#181818;stroke-width:1.0;"/><path d="M628.5156,30.875 Q628.6719,30.6563 628.8594,30.5469 Q629.0469,30.4375 629.2656,30.4375 Q629.6406,30.4375 629.875,30.7031 Q630.1094,30.9531 630.1094,31.5625 L630.1094,33.0156 Q630.1094,33.625 629.875,33.8906 Q629.6406,34.1563 629.2656,34.1563 Q628.9219,34.1563 628.7188,33.9531 Q628.5156,33.7656 628.4063,33.25 Q628.3594,32.8906 628.1719,32.7031 Q627.8438,32.3281 627.2344,32.1094 Q626.625,31.8906 626,31.8906 Q625.2344,31.8906 624.5938,32.2188 Q623.9688,32.5469 623.4688,33.2969 Q622.9844,34.0469 622.9844,35.0781 L622.9844,36.1719 Q622.9844,37.4063 623.875,38.2344 Q624.7656,39.0469 626.3594,39.0469 Q627.2969,39.0469 627.9531,38.7969 Q628.3438,38.6406 628.7656,38.2031 Q629.0313,37.9375 629.1719,37.8594 Q629.3281,37.7813 629.5313,37.7813 Q629.8594,37.7813 630.1094,38.0469 Q630.375,38.2969 630.375,38.6406 Q630.375,38.9844 630.0313,39.3906 Q629.5313,39.9688 628.7344,40.2969 Q627.6563,40.75 626.3594,40.75 Q624.8438,40.75 623.6406,40.125 Q622.6563,39.625 621.9688,38.5625 Q621.2813,37.4844 621.2813,36.2031 L621.2813,35.0469 Q621.2813,33.7188 621.8906,32.5781 Q622.5156,31.4219 623.6094,30.8125 Q624.7031,30.1875 625.9375,30.1875 Q626.6719,30.1875 627.3125,30.3594 Q627.9688,30.5156 628.5156,30.875 Z " fill="#000000"/><text fill="#000000" font-family="sans-serif" font-size="14" lengthAdjust="spacing" textLength="66" x="646.25" y="39.8535">Assembler</text><line style="stroke:#181818;stroke-width:0.5;" x1="570.5" x2="755.5" y1="51" y2="51"/><ellipse cx="580.5" cy="64.3203" fill="#84BE84" rx="3" ry="3" style="stroke:#038048;stroke-width:1.0;"/><text fill="#000000" font-family="sans-serif" font-size="14" lengthAdjust="spacing" textLength="117" x="589.5" y="67.6738">main(String[] args)</text><rect fill="#F24D5C" height="6" style="stroke:#C82930;stroke-width:1.0;" width="6" x="577.5" y="76.9609"/><text fill="#000000" font-family="sans-serif" font-size="14" lengthAdjust="spacing" textLength="161" x="589.5" y="83.3145">assemble(Stage,File,File)</text></g><!--class Decoder--><g id="elem_Decoder"><rect codeLine="28" fill="#F1F1F1" height="55.6406" id="Decoder" rx="2.5" ry="2.5" style="stroke:#181818;stroke-width:0.5;" width="122" x="402" y="426"/><ellipse cx="433.2" cy="442" fill="#ADD1B2" rx="11" ry="11" style="stroke:#181818;stroke-width:1.0;"/><path d="M435.9656,437.875 Q436.1219,437.6563 436.3094,437.5469 Q436.4969,437.4375 436.7156,437.4375 Q437.0906,437.4375 437.325,437.7031 Q437.5594,437.9531 437.5594,438.5625 L437.5594,440.0156 Q437.5594,440.625 437.325,440.8906 Q437.0906,441.1563 436.7156,441.1563 Q436.3719,441.1563 436.1688,440.9531 Q435.9656,440.7656 435.8563,440.25 Q435.8094,439.8906 435.6219,439.7031 Q435.2938,439.3281 434.6844,439.1094 Q434.075,438.8906 433.45,438.8906 Q432.6844,438.8906 432.0438,439.2188 Q431.4188,439.5469 430.9188,440.2969 Q430.4344,441.0469 430.4344,442.0781 L430.4344,443.1719 Q430.4344,444.4063 431.325,445.2344 Q432.2156,446.0469 433.8094,446.0469 Q434.7469,446.0469 435.4031,445.7969 Q435.7938,445.6406 436.2156,445.2031 Q436.4813,444.9375 436.6219,444.8594 Q436.7781,444.7813 436.9813,444.7813 Q437.3094,444.7813 437.5594,445.0469 Q437.825,445.2969 437.825,445.6406 Q437.825,445.9844 437.4813,446.3906 Q436.9813,446.9688 436.1844,447.2969 Q435.1063,447.75 433.8094,447.75 Q432.2938,447.75 431.0906,447.125 Q430.1063,446.625 429.4188,445.5625 Q428.7313,444.4844 428.7313,443.2031 L428.7313,442.0469 Q428.7313,440.7188 429.3406,439.5781 Q429.9656,438.4219 431.0594,437.8125 Q432.1531,437.1875 433.3875,437.1875 Q434.1219,437.1875 434.7625,437.3594 Q435.4188,437.5156 435.9656,437.875 Z " fill="#000000"/><text fill="#000000" font-family="sans-serif" font-size="14" lengthAdjust="spacing" textLength="54" x="450.8" y="446.8535">Decoder</text><line style="stroke:#181818;stroke-width:0.5;" x1="403" x2="523" y1="458" y2="458"/><ellipse cx="413" cy="471.3203" fill="#84BE84" rx="3" ry="3" style="stroke:#038048;stroke-width:1.0;"/><text fill="#000000" font-family="sans-serif" font-size="14" lengthAdjust="spacing" textLength="96" x="422" y="474.6738">execute(Stage)</text></g><!--class RInstructions--><g id="elem_RInstructions"><rect codeLine="33" fill="#F1F1F1" height="55.6406" id="RInstructions" rx="2.5" ry="2.5" style="stroke:#181818;stroke-width:0.5;" width="198" x="7" y="542"/><ellipse cx="60.75" cy="558" fill="#ADD1B2" rx="11" ry="11" style="stroke:#181818;stroke-width:1.0;"/><path d="M63.5156,553.875 Q63.6719,553.6563 63.8594,553.5469 Q64.0469,553.4375 64.2656,553.4375 Q64.6406,553.4375 64.875,553.7031 Q65.1094,553.9531 65.1094,554.5625 L65.1094,556.0156 Q65.1094,556.625 64.875,556.8906 Q64.6406,557.1563 64.2656,557.1563 Q63.9219,557.1563 63.7188,556.9531 Q63.5156,556.7656 63.4063,556.25 Q63.3594,555.8906 63.1719,555.7031 Q62.8438,555.3281 62.2344,555.1094 Q61.625,554.8906 61,554.8906 Q60.2344,554.8906 59.5938,555.2188 Q58.9688,555.5469 58.4688,556.2969 Q57.9844,557.0469 57.9844,558.0781 L57.9844,559.1719 Q57.9844,560.4063 58.875,561.2344 Q59.7656,562.0469 61.3594,562.0469 Q62.2969,562.0469 62.9531,561.7969 Q63.3438,561.6406 63.7656,561.2031 Q64.0313,560.9375 64.1719,560.8594 Q64.3281,560.7813 64.5313,560.7813 Q64.8594,560.7813 65.1094,561.0469 Q65.375,561.2969 65.375,561.6406 Q65.375,561.9844 65.0313,562.3906 Q64.5313,562.9688 63.7344,563.2969 Q62.6563,563.75 61.3594,563.75 Q59.8438,563.75 58.6406,563.125 Q57.6563,562.625 56.9688,561.5625 Q56.2813,560.4844 56.2813,559.2031 L56.2813,558.0469 Q56.2813,556.7188 56.8906,555.5781 Q57.5156,554.4219 58.6094,553.8125 Q59.7031,553.1875 60.9375,553.1875 Q61.6719,553.1875 62.3125,553.3594 Q62.9688,553.5156 63.5156,553.875 Z " fill="#000000"/><text fill="#000000" font-family="sans-serif" font-size="14" lengthAdjust="spacing" textLength="82" x="81.25" y="562.8535">RInstructions</text><line style="stroke:#181818;stroke-width:0.5;" x1="8" x2="204" y1="574" y2="574"/><ellipse cx="18" cy="587.3203" fill="#84BE84" rx="3" ry="3" style="stroke:#038048;stroke-width:1.0;"/><text fill="#000000" font-family="sans-serif" font-size="14" lengthAdjust="spacing" textLength="172" x="27" y="590.6738">executeR(Stage,op,rs,rt,rd)</text></g><!--class IInstructions--><g id="elem_IInstructions"><rect codeLine="37" fill="#F1F1F1" height="55.6406" id="IInstructions" rx="2.5" ry="2.5" style="stroke:#181818;stroke-width:0.5;" width="213" x="240.5" y="542"/><ellipse cx="305.25" cy="558" fill="#ADD1B2" rx="11" ry="11" style="stroke:#181818;stroke-width:1.0;"/><path d="M308.0156,553.875 Q308.1719,553.6563 308.3594,553.5469 Q308.5469,553.4375 308.7656,553.4375 Q309.1406,553.4375 309.375,553.7031 Q309.6094,553.9531 309.6094,554.5625 L309.6094,556.0156 Q309.6094,556.625 309.375,556.8906 Q309.1406,557.1563 308.7656,557.1563 Q308.4219,557.1563 308.2188,556.9531 Q308.0156,556.7656 307.9063,556.25 Q307.8594,555.8906 307.6719,555.7031 Q307.3438,555.3281 306.7344,555.1094 Q306.125,554.8906 305.5,554.8906 Q304.7344,554.8906 304.0938,555.2188 Q303.4688,555.5469 302.9688,556.2969 Q302.4844,557.0469 302.4844,558.0781 L302.4844,559.1719 Q302.4844,560.4063 303.375,561.2344 Q304.2656,562.0469 305.8594,562.0469 Q306.7969,562.0469 307.4531,561.7969 Q307.8438,561.6406 308.2656,561.2031 Q308.5313,560.9375 308.6719,560.8594 Q308.8281,560.7813 309.0313,560.7813 Q309.3594,560.7813 309.6094,561.0469 Q309.875,561.2969 309.875,561.6406 Q309.875,561.9844 309.5313,562.3906 Q309.0313,562.9688 308.2344,563.2969 Q307.1563,563.75 305.8594,563.75 Q304.3438,563.75 303.1406,563.125 Q302.1563,562.625 301.4688,561.5625 Q300.7813,560.4844 300.7813,559.2031 L300.7813,558.0469 Q300.7813,556.7188 301.3906,555.5781 Q302.0156,554.4219 303.1094,553.8125 Q304.2031,553.1875 305.4375,553.1875 Q306.1719,553.1875 306.8125,553.3594 Q307.4688,553.5156 308.0156,553.875 Z " fill="#000000"/><text fill="#000000" font-family="sans-serif" font-size="14" lengthAdjust="spacing" textLength="75" x="325.75" y="562.8535">IInstructions</text><line style="stroke:#181818;stroke-width:0.5;" x1="241.5" x2="452.5" y1="574" y2="574"/><ellipse cx="251.5" cy="587.3203" fill="#84BE84" rx="3" ry="3" style="stroke:#038048;stroke-width:1.0;"/><text fill="#000000" font-family="sans-serif" font-size="14" lengthAdjust="spacing" textLength="187" x="260.5" y="590.6738">executeI(Stage,op,rs,rt,offset)</text></g><!--class JInstructions--><g id="elem_JInstructions"><rect codeLine="41" fill="#F1F1F1" height="55.6406" id="JInstructions" rx="2.5" ry="2.5" style="stroke:#181818;stroke-width:0.5;" width="181" x="488.5" y="542"/><ellipse cx="535.75" cy="558" fill="#ADD1B2" rx="11" ry="11" style="stroke:#181818;stroke-width:1.0;"/><path d="M538.5156,553.875 Q538.6719,553.6563 538.8594,553.5469 Q539.0469,553.4375 539.2656,553.4375 Q539.6406,553.4375 539.875,553.7031 Q540.1094,553.9531 540.1094,554.5625 L540.1094,556.0156 Q540.1094,556.625 539.875,556.8906 Q539.6406,557.1563 539.2656,557.1563 Q538.9219,557.1563 538.7188,556.9531 Q538.5156,556.7656 538.4063,556.25 Q538.3594,555.8906 538.1719,555.7031 Q537.8438,555.3281 537.2344,555.1094 Q536.625,554.8906 536,554.8906 Q535.2344,554.8906 534.5938,555.2188 Q533.9688,555.5469 533.4688,556.2969 Q532.9844,557.0469 532.9844,558.0781 L532.9844,559.1719 Q532.9844,560.4063 533.875,561.2344 Q534.7656,562.0469 536.3594,562.0469 Q537.2969,562.0469 537.9531,561.7969 Q538.3438,561.6406 538.7656,561.2031 Q539.0313,560.9375 539.1719,560.8594 Q539.3281,560.7813 539.5313,560.7813 Q539.8594,560.7813 540.1094,561.0469 Q540.375,561.2969 540.375,561.6406 Q540.375,561.9844 540.0313,562.3906 Q539.5313,562.9688 538.7344,563.2969 Q537.6563,563.75 536.3594,563.75 Q534.8438,563.75 533.6406,563.125 Q532.6563,562.625 531.9688,561.5625 Q531.2813,560.4844 531.2813,559.2031 L531.2813,558.0469 Q531.2813,556.7188 531.8906,555.5781 Q532.5156,554.4219 533.6094,553.8125 Q534.7031,553.1875 535.9375,553.1875 Q536.6719,553.1875 537.3125,553.3594 Q537.9688,553.5156 538.5156,553.875 Z " fill="#000000"/><text fill="#000000" font-family="sans-serif" font-size="14" lengthAdjust="spacing" textLength="78" x="556.25" y="562.8535">JInstructions</text><line style="stroke:#181818;stroke-width:0.5;" x1="489.5" x2="668.5" y1="574" y2="574"/><ellipse cx="499.5" cy="587.3203" fill="#84BE84" rx="3" ry="3" style="stroke:#038048;stroke-width:1.0;"/><text fill="#000000" font-family="sans-serif" font-size="14" lengthAdjust="spacing" textLength="155" x="508.5" y="590.6738">executeJ(Stage,op,rs,rd)</text></g><!--class OInstructions--><g id="elem_OInstructions"><rect codeLine="45" fill="#F1F1F1" height="55.6406" id="OInstructions" rx="2.5" ry="2.5" style="stroke:#181818;stroke-width:0.5;" width="133" x="704.5" y="542"/><ellipse cx="727.6" cy="558" fill="#ADD1B2" rx="11" ry="11" style="stroke:#181818;stroke-width:1.0;"/><path d="M730.3656,553.875 Q730.5219,553.6563 730.7094,553.5469 Q730.8969,553.4375 731.1156,553.4375 Q731.4906,553.4375 731.725,553.7031 Q731.9594,553.9531 731.9594,554.5625 L731.9594,556.0156 Q731.9594,556.625 731.725,556.8906 Q731.4906,557.1563 731.1156,557.1563 Q730.7719,557.1563 730.5688,556.9531 Q730.3656,556.7656 730.2563,556.25 Q730.2094,555.8906 730.0219,555.7031 Q729.6938,555.3281 729.0844,555.1094 Q728.475,554.8906 727.85,554.8906 Q727.0844,554.8906 726.4438,555.2188 Q725.8188,555.5469 725.3188,556.2969 Q724.8344,557.0469 724.8344,558.0781 L724.8344,559.1719 Q724.8344,560.4063 725.725,561.2344 Q726.6156,562.0469 728.2094,562.0469 Q729.1469,562.0469 729.8031,561.7969 Q730.1938,561.6406 730.6156,561.2031 Q730.8813,560.9375 731.0219,560.8594 Q731.1781,560.7813 731.3813,560.7813 Q731.7094,560.7813 731.9594,561.0469 Q732.225,561.2969 732.225,561.6406 Q732.225,561.9844 731.8813,562.3906 Q731.3813,562.9688 730.5844,563.2969 Q729.5063,563.75 728.2094,563.75 Q726.6938,563.75 725.4906,563.125 Q724.5063,562.625 723.8188,561.5625 Q723.1313,560.4844 723.1313,559.2031 L723.1313,558.0469 Q723.1313,556.7188 723.7406,555.5781 Q724.3656,554.4219 725.4594,553.8125 Q726.5531,553.1875 727.7875,553.1875 Q728.5219,553.1875 729.1625,553.3594 Q729.8188,553.5156 730.3656,553.875 Z " fill="#000000"/><text fill="#000000" font-family="sans-serif" font-size="14" lengthAdjust="spacing" textLength="83" x="743.4" y="562.8535">OInstructions</text><line style="stroke:#181818;stroke-width:0.5;" x1="705.5" x2="836.5" y1="574" y2="574"/><ellipse cx="715.5" cy="587.3203" fill="#84BE84" rx="3" ry="3" style="stroke:#038048;stroke-width:1.0;"/><text fill="#000000" font-family="sans-serif" font-size="14" lengthAdjust="spacing" textLength="107" x="724.5" y="590.6738">executeO(Stage)</text></g><!--class UndefinedLabel--><g id="elem_UndefinedLabel"><rect codeLine="50" fill="#F1F1F1" height="32" id="UndefinedLabel" rx="2.5" ry="2.5" style="stroke:#181818;stroke-width:0.5;" width="131" x="791.5" y="38.5"/><ellipse cx="806.5" cy="54.5" fill="#D94321" rx="11" ry="11" style="stroke:#181818;stroke-width:1.0;"/><path d="M808.2188,54.375 L811.0625,57.7969 Q811.5625,57.8125 811.8125,58.0469 Q812.0625,58.2813 812.0625,58.6563 Q812.0625,59.0313 811.7969,59.2656 Q811.5469,59.5 810.9375,59.5 L809.0156,59.5 Q808.4063,59.5 808.1406,59.2656 Q807.8906,59.0313 807.8906,58.6406 Q807.8906,58.2813 808.125,58.0469 Q808.3594,57.8125 808.8438,57.7969 L807.1406,55.6875 L805.4063,57.7969 Q805.8906,57.8125 806.125,58.0625 Q806.3594,58.2969 806.3594,58.6563 Q806.3594,59.0313 806.0938,59.2656 Q805.8438,59.5 805.2344,59.5 L803.3125,59.5 Q802.7031,59.5 802.4375,59.2656 Q802.1875,59.0313 802.1875,58.6406 Q802.1875,58.2813 802.4375,58.0469 Q802.7031,57.7969 803.2031,57.7969 L806.0156,54.3594 L803.3281,51.1406 Q802.8281,51.125 802.5781,50.8906 Q802.3438,50.6563 802.3438,50.2813 Q802.3438,49.9063 802.5938,49.6719 Q802.8594,49.4375 803.4844,49.4375 L805.0469,49.4375 Q805.6563,49.4375 805.9219,49.6719 Q806.1875,49.9063 806.1875,50.2813 Q806.1875,50.5625 806.0156,50.7969 Q805.9063,50.9375 805.5313,51.1406 L807.125,53.0469 L808.6719,51.1406 Q808.2969,50.9375 808.1875,50.7969 Q808.0313,50.5625 808.0313,50.2813 Q808.0313,49.9063 808.2813,49.6719 Q808.5469,49.4375 809.1563,49.4375 L810.7188,49.4375 Q811.3438,49.4375 811.5938,49.6719 Q811.8594,49.9063 811.8594,50.2813 Q811.8594,50.6563 811.6094,50.8906 Q811.3594,51.125 810.875,51.1406 L808.2188,54.375 Z " fill="#000000"/><text fill="#000000" font-family="sans-serif" font-size="14" lengthAdjust="spacing" textLength="99" x="820.5" y="59.3535">UndefinedLabel</text></g><!--class DuplicatedLabel--><g id="elem_DuplicatedLabel"><rect codeLine="51" fill="#F1F1F1" height="32" id="DuplicatedLabel" rx="2.5" ry="2.5" style="stroke:#181818;stroke-width:0.5;" width="134" x="958" y="38.5"/><ellipse cx="973" cy="54.5" fill="#D94321" rx="11" ry="11" style="stroke:#181818;stroke-width:1.0;"/><path d="M974.7188,54.375 L977.5625,57.7969 Q978.0625,57.8125 978.3125,58.0469 Q978.5625,58.2813 978.5625,58.6563 Q978.5625,59.0313 978.2969,59.2656 Q978.0469,59.5 977.4375,59.5 L975.5156,59.5 Q974.9063,59.5 974.6406,59.2656 Q974.3906,59.0313 974.3906,58.6406 Q974.3906,58.2813 974.625,58.0469 Q974.8594,57.8125 975.3438,57.7969 L973.6406,55.6875 L971.9063,57.7969 Q972.3906,57.8125 972.625,58.0625 Q972.8594,58.2969 972.8594,58.6563 Q972.8594,59.0313 972.5938,59.2656 Q972.3438,59.5 971.7344,59.5 L969.8125,59.5 Q969.2031,59.5 968.9375,59.2656 Q968.6875,59.0313 968.6875,58.6406 Q968.6875,58.2813 968.9375,58.0469 Q969.2031,57.7969 969.7031,57.7969 L972.5156,54.3594 L969.8281,51.1406 Q969.3281,51.125 969.0781,50.8906 Q968.8438,50.6563 968.8438,50.2813 Q968.8438,49.9063 969.0938,49.6719 Q969.3594,49.4375 969.9844,49.4375 L971.5469,49.4375 Q972.1563,49.4375 972.4219,49.6719 Q972.6875,49.9063 972.6875,50.2813 Q972.6875,50.5625 972.5156,50.7969 Q972.4063,50.9375 972.0313,51.1406 L973.625,53.0469 L975.1719,51.1406 Q974.7969,50.9375 974.6875,50.7969 Q974.5313,50.5625 974.5313,50.2813 Q974.5313,49.9063 974.7813,49.6719 Q975.0469,49.4375 975.6563,49.4375 L977.2188,49.4375 Q977.8438,49.4375 978.0938,49.6719 Q978.3594,49.9063 978.3594,50.2813 Q978.3594,50.6563 978.1094,50.8906 Q977.8594,51.125 977.375,51.1406 L974.7188,54.375 Z " fill="#000000"/><text fill="#000000" font-family="sans-serif" font-size="14" lengthAdjust="spacing" textLength="102" x="987" y="59.3535">DuplicatedLabel</text></g><!--class OverflowingOffset--><g id="elem_OverflowingOffset"><rect codeLine="52" fill="#F1F1F1" height="32" id="OverflowingOffset" rx="2.5" ry="2.5" style="stroke:#181818;stroke-width:0.5;" width="144" x="785" y="248"/><ellipse cx="800" cy="264" fill="#D94321" rx="11" ry="11" style="stroke:#181818;stroke-width:1.0;"/><path d="M801.7188,263.875 L804.5625,267.2969 Q805.0625,267.3125 805.3125,267.5469 Q805.5625,267.7813 805.5625,268.1563 Q805.5625,268.5313 805.2969,268.7656 Q805.0469,269 804.4375,269 L802.5156,269 Q801.9063,269 801.6406,268.7656 Q801.3906,268.5313 801.3906,268.1406 Q801.3906,267.7813 801.625,267.5469 Q801.8594,267.3125 802.3438,267.2969 L800.6406,265.1875 L798.9063,267.2969 Q799.3906,267.3125 799.625,267.5625 Q799.8594,267.7969 799.8594,268.1563 Q799.8594,268.5313 799.5938,268.7656 Q799.3438,269 798.7344,269 L796.8125,269 Q796.2031,269 795.9375,268.7656 Q795.6875,268.5313 795.6875,268.1406 Q795.6875,267.7813 795.9375,267.5469 Q796.2031,267.2969 796.7031,267.2969 L799.5156,263.8594 L796.8281,260.6406 Q796.3281,260.625 796.0781,260.3906 Q795.8438,260.1563 795.8438,259.7813 Q795.8438,259.4063 796.0938,259.1719 Q796.3594,258.9375 796.9844,258.9375 L798.5469,258.9375 Q799.1563,258.9375 799.4219,259.1719 Q799.6875,259.4063 799.6875,259.7813 Q799.6875,260.0625 799.5156,260.2969 Q799.4063,260.4375 799.0313,260.6406 L800.625,262.5469 L802.1719,260.6406 Q801.7969,260.4375 801.6875,260.2969 Q801.5313,260.0625 801.5313,259.7813 Q801.5313,259.4063 801.7813,259.1719 Q802.0469,258.9375 802.6563,258.9375 L804.2188,258.9375 Q804.8438,258.9375 805.0938,259.1719 Q805.3594,259.4063 805.3594,259.7813 Q805.3594,260.1563 805.1094,260.3906 Q804.8594,260.625 804.375,260.6406 L801.7188,263.875 Z " fill="#000000"/><text fill="#000000" font-family="sans-serif" font-size="14" lengthAdjust="spacing" textLength="112" x="814" y="268.8535">OverflowingOffset</text></g><!--class UnknownInstruction--><g id="elem_UnknownInstruction"><rect codeLine="53" fill="#F1F1F1" height="32" id="UnknownInstruction" rx="2.5" ry="2.5" style="stroke:#181818;stroke-width:0.5;" width="154" x="964" y="248"/><ellipse cx="979" cy="264" fill="#D94321" rx="11" ry="11" style="stroke:#181818;stroke-width:1.0;"/><path d="M980.7188,263.875 L983.5625,267.2969 Q984.0625,267.3125 984.3125,267.5469 Q984.5625,267.7813 984.5625,268.1563 Q984.5625,268.5313 984.2969,268.7656 Q984.0469,269 983.4375,269 L981.5156,269 Q980.9063,269 980.6406,268.7656 Q980.3906,268.5313 980.3906,268.1406 Q980.3906,267.7813 980.625,267.5469 Q980.8594,267.3125 981.3438,267.2969 L979.6406,265.1875 L977.9063,267.2969 Q978.3906,267.3125 978.625,267.5625 Q978.8594,267.7969 978.8594,268.1563 Q978.8594,268.5313 978.5938,268.7656 Q978.3438,269 977.7344,269 L975.8125,269 Q975.2031,269 974.9375,268.7656 Q974.6875,268.5313 974.6875,268.1406 Q974.6875,267.7813 974.9375,267.5469 Q975.2031,267.2969 975.7031,267.2969 L978.5156,263.8594 L975.8281,260.6406 Q975.3281,260.625 975.0781,260.3906 Q974.8438,260.1563 974.8438,259.7813 Q974.8438,259.4063 975.0938,259.1719 Q975.3594,258.9375 975.9844,258.9375 L977.5469,258.9375 Q978.1563,258.9375 978.4219,259.1719 Q978.6875,259.4063 978.6875,259.7813 Q978.6875,260.0625 978.5156,260.2969 Q978.4063,260.4375 978.0313,260.6406 L979.625,262.5469 L981.1719,260.6406 Q980.7969,260.4375 980.6875,260.2969 Q980.5313,260.0625 980.5313,259.7813 Q980.5313,259.4063 980.7813,259.1719 Q981.0469,258.9375 981.6563,258.9375 L983.2188,258.9375 Q983.8438,258.9375 984.0938,259.1719 Q984.3594,259.4063 984.3594,259.7813 Q984.3594,260.1563 984.1094,260.3906 Q983.8594,260.625 983.375,260.6406 L980.7188,263.875 Z " fill="#000000"/><text fill="#000000" font-family="sans-serif" font-size="14" lengthAdjust="spacing" textLength="122" x="993" y="268.8535">UnknownInstruction</text></g><!--link Simulator to Stage--><g id="link_Simulator_Stage"><path codeLine="64" d="M463,102.07 C463,118.34 463,137.34 463,156.47 " fill="none" id="Simulator-to-Stage" style="stroke:#181818;stroke-width:1.0;"/><polygon fill="#181818" points="463,161.87,467,152.87,463,156.87,459,152.87,463,161.87" style="stroke:#181818;stroke-width:1.0;"/></g><!--link Simulator to Assembler--><!--link Stage to Decoder--><g id="link_Stage_Decoder"><path codeLine="67" d="M463,366.15 C463,385.99 463,405.39 463,420.81 " fill="none" id="Stage-to-Decoder" style="stroke:#181818;stroke-width:1.0;"/><polygon fill="#181818" points="463,425.88,467,416.88,463,420.88,459,416.88,463,425.88" style="stroke:#181818;stroke-width:1.0;"/></g><!--link Decoder to RInstructions--><g id="link_Decoder_RInstructions"><path codeLine="68" d="M401.63,474.6 C344.89,492.71 259.9,519.86 195.58,540.39 " fill="none" id="Decoder-to-RInstructions" style="stroke:#181818;stroke-width:1.0;"/><polygon fill="#181818" points="190.6,541.99,200.3893,543.0717,195.3644,540.4734,197.9627,535.4486,190.6,541.99" style="stroke:#181818;stroke-width:1.0;"/></g><!--link Decoder to IInstructions--><g id="link_Decoder_IInstructions"><path codeLine="69" d="M435.51,482.02 C418.44,498.79 396.45,520.4 378.66,537.89 " fill="none" id="Decoder-to-IInstructions" style="stroke:#181818;stroke-width:1.0;"/><polygon fill="#181818" points="374.7,541.78,383.9206,538.3187,378.2639,538.2731,378.3095,532.6164,374.7,541.78" style="stroke:#181818;stroke-width:1.0;"/></g><!--link Decoder to JInstructions--><g id="link_Decoder_JInstructions"><path codeLine="70" d="M490.49,482.02 C507.56,498.79 529.55,520.4 547.34,537.89 " fill="none" id="Decoder-to-JInstructions" style="stroke:#181818;stroke-width:1.0;"/><polygon fill="#181818" points="551.3,541.78,547.6905,532.6164,547.7361,538.2731,542.0794,538.3187,551.3,541.78" style="stroke:#181818;stroke-width:1.0;"/></g><!--link Decoder to OInstructions--><g id="link_Decoder_OInstructions"><path codeLine="71" d="M524.22,477.66 C574.71,496.35 646.42,522.89 699.53,542.55 " fill="none" id="Decoder-to-OInstructions" style="stroke:#181818;stroke-width:1.0;"/><polygon fill="#181818" points="704.29,544.31,697.2491,537.4234,699.6037,542.5669,694.4601,544.9215,704.29,544.31" style="stroke:#181818;stroke-width:1.0;"/></g><!--reverse link Stage to RInstructions--><g id="link_Stage_RInstructions"><path codeLine="73" d="M385.35,331.13 C307.97,397.02 192.96,494.95 137.78,541.93 " fill="none" id="Stage-backto-RInstructions" style="stroke:#181818;stroke-width:1.0;stroke-dasharray:7.0,7.0;"/><polygon fill="#181818" points="389.46,327.62,380.0174,330.4196,385.6567,330.8657,385.2106,336.5049,389.46,327.62" style="stroke:#181818;stroke-width:1.0;"/></g><!--reverse link Stage to JInstructions--><g id="link_Stage_JInstructions"><path codeLine="74" d="M517.85,370.94 C526.21,389.06 534.27,407.88 541,426 C555.62,465.37 567.06,512.78 573.43,541.9 " fill="none" id="Stage-backto-JInstructions" style="stroke:#181818;stroke-width:1.0;stroke-dasharray:7.0,7.0;"/><polygon fill="#181818" points="515.72,366.35,515.8911,376.1974,517.8297,370.8831,523.144,372.8218,515.72,366.35" style="stroke:#181818;stroke-width:1.0;"/></g><!--reverse link Stage to IInstructions--><g id="link_Stage_IInstructions"><path codeLine="75" d="M407.3,370.86 C398.85,388.98 390.73,407.83 384,426 C369.44,465.32 358.39,512.74 352.3,541.88 " fill="none" id="Stage-backto-IInstructions" style="stroke:#181818;stroke-width:1.0;stroke-dasharray:7.0,7.0;"/><polygon fill="#181818" points="409.45,366.27,402.0015,372.7136,407.3231,370.7951,409.2416,376.1167,409.45,366.27" style="stroke:#181818;stroke-width:1.0;"/></g><!--reverse link Stage to OInstructions--><g id="link_Stage_OInstructions"><path codeLine="76" d="M540.7,341.7 C607,407.13 698.53,497.47 743.63,541.99 " fill="none" id="Stage-backto-OInstructions" style="stroke:#181818;stroke-width:1.0;stroke-dasharray:7.0,7.0;"/><polygon fill="#181818" points="536.77,337.82,540.3612,346.9908,540.3269,341.334,545.9836,341.2998,536.77,337.82" style="stroke:#181818;stroke-width:1.0;"/></g><!--SRC=[VPJ1Yjim48RlVWhTcYLnSYYxbB0K2akfJS5bbvv23eerTaHboKZZRahfkrUsx5You-HWcFart_mQ9lfmHgpDVhUh1PNOL6ARgsgN2sfCp3WjDQsYg0l96wyQGL5fyZSYzXSJBki6lt81Uz9- -wngS9vULvJBrHjgBil3aL1TceVetnMDj8GUkwwWKlhFtjBnyFJu-F7fwF8QIcuGj5C-kMnSvrti0WaN_E4dkFb61Ux9IIdXACRT0bOFBkQMw8MrDOZMpfWnO95Uq09NdlSlna1r4Z2CPKrkNTMDXlPdLzs5D-rqka-BEtC67gpW8DZGumLonSOES86ymPvohHqE1PMlYJIecnovacPI_zhRKFL6cut6ZMPNM5Zda8wOt24cKw8g2ZkoApLPfAPtg6b87KscYxZi3YwRp2sxGOdWaaFTPiXFoQ3W4jXtUWBX2IzDBNXkDsMcPBz15qAzsmN8kW44k5zIlKklftCHjkbjt58gmBFgfOa5lseg-MKpVtxXNFHBv_P3gpErBuwYyVc8cJqJVtR_-cXS-LX0WGSBOY2FyVZUsDhkVOXjJR_aqR3iRIxOrK195fLqKGdMOMZzlDrEsepvT26VBEI31ly1]--></g></svg>