<?xml version="1.0" encoding="us-ascii" standalone="no"?><svg xmlns="http://www.w3.org/2000/svg" xmlns:xlink="http://www.w3.org/1999/xlink" contentStyleType="text/css" height="326.6165px" preserveAspectRatio="none" style="width:606px;height:326px;background:#FFFFFF;" version="1.1" viewBox="0 0 606 326" width="606.3158px" zoomAndPan="magnify"><defs/><g><!--cluster Initialization--><g id="cluster_Initialization"><path d="M17.594,65.8647 L583.3083,65.8647 A11.2782,11.2782 0 0 1 594.5865,77.1429 L594.5865,84.4878 L6.3158,84.4878 L6.3158,77.1429 A11.2782,11.2782 0 0 1 17.594,65.8647 " fill="#F1F1F1" style="stroke:#F1F1F1;stroke-width:0.9022556390977443;"/><rect fill="none" height="194.8872" rx="11.2782" ry="11.2782" style="stroke:#181818;stroke-width:0.45112781954887216;" width="588.2707" x="6.3158" y="65.8647"/><line style="stroke:#181818;stroke-width:0.45112781954887216;" x1="6.3158" x2="594.5865" y1="84.4878" y2="84.4878"/><text fill="#000000" font-family="sans-serif" font-size="12.6316" lengthAdjust="spacing" textLength="64.9624" x="267.9699" y="80.9087">Initialization</text></g><rect fill="#F1F1F1" height="36.0902" rx="11.2782" ry="11.2782" style="stroke:#181818;stroke-width:0.45112781954887216;" width="60.4511" x="21.203" y="96.5414"/><text fill="#000000" font-family="sans-serif" font-size="12.6316" lengthAdjust="spacing" textLength="51.4286" x="25.7143" y="118.9656">ReadFile</text><rect fill="#F1F1F1" height="36.0902" rx="11.2782" ry="11.2782" style="stroke:#181818;stroke-width:0.45112781954887216;" width="84.812" x="181.3534" y="96.5414"/><text fill="#000000" font-family="sans-serif" font-size="12.6316" lengthAdjust="spacing" textLength="75.7895" x="185.8647" y="118.9656">AssignLabels</text><g id="Initialization.Exit1"><rect fill="#F1F1F1" height="45.1128" rx="11.2782" ry="11.2782" style="stroke:#181818;stroke-width:0.45112781954887216;" width="129.0226" x="270.2256" y="201.203"/><line style="stroke:#181818;stroke-width:0.45112781954887216;" x1="270.2256" x2="399.2481" y1="224.3374" y2="224.3374"/><text fill="#000000" font-family="sans-serif" font-size="12.6316" lengthAdjust="spacing" textLength="27.0677" x="321.203" y="217.1493">Exit1</text><text fill="#000000" font-family="sans-serif" font-size="10.8271" lengthAdjust="spacing" textLength="110.9774" x="274.7368" y="238.6501">- Show error message</text></g><rect fill="#F1F1F1" height="36.0902" rx="11.2782" ry="11.2782" style="stroke:#181818;stroke-width:0.45112781954887216;" width="55.0376" x="365.8647" y="96.5414"/><text fill="#000000" font-family="sans-serif" font-size="12.6316" lengthAdjust="spacing" textLength="46.015" x="370.3759" y="118.9656">Compile</text><rect fill="#F1F1F1" height="36.0902" rx="11.2782" ry="11.2782" style="stroke:#181818;stroke-width:0.45112781954887216;" width="59.5489" x="520.6015" y="96.5414"/><text fill="#000000" font-family="sans-serif" font-size="12.6316" lengthAdjust="spacing" textLength="50.5263" x="525.1128" y="118.9656">WriteFile</text><rect fill="#F1F1F1" height="36.0902" rx="11.2782" ry="11.2782" style="stroke:#181818;stroke-width:0.45112781954887216;" width="45.1128" x="460.1504" y="205.7143"/><text fill="#000000" font-family="sans-serif" font-size="12.6316" lengthAdjust="spacing" textLength="27.0677" x="469.1729" y="228.1385">Exit0</text><ellipse cx="51.4286" cy="14.4361" fill="#181818" rx="9.0226" ry="9.0226" style="stroke:none;stroke-width:0.9022556390977443;"/><ellipse cx="407.8195" cy="312.1805" fill="none" rx="9.0226" ry="9.0226" style="stroke:#181818;stroke-width:0.9022556390977443;"/><ellipse cx="408.2707" cy="312.6316" fill="#181818" rx="5.4135" ry="5.4135" style="stroke:none;stroke-width:0.9022556390977443;"/><!--link ReadFile to AssignLabels--><g id="link_ReadFile_AssignLabels"><path d="M81.8436,114.5865 C107.982,114.5865 146.1203,114.5865 176.2737,114.5865 " fill="none" id="ReadFile-to-AssignLabels" style="stroke:#181818;stroke-width:0.9022556390977443;"/><polygon fill="#181818" points="181.0466,114.5865,172.9263,110.9774,176.5353,114.5865,172.9263,118.1955,181.0466,114.5865" style="stroke:#181818;stroke-width:0.9022556390977443;"/><text fill="#000000" font-family="sans-serif" font-size="11.7293" lengthAdjust="spacing" textLength="66.7669" x="98.1203" y="108.9641">no-exception</text></g><!--link ReadFile to Exit1--><g id="link_ReadFile_Exit1"><path d="M81.6722,128.2737 C110.7699,140.4541 156.0632,159.1128 195.7895,174.1353 C218.6526,182.7789 243.8256,191.7654 266.391,199.6331 " fill="none" id="ReadFile-to-Exit1" style="stroke:#181818;stroke-width:0.9022556390977443;"/><polygon fill="#181818" points="270.8662,201.185,264.3858,195.1048,266.6061,199.7004,262.0105,201.9208,270.8662,201.185" style="stroke:#181818;stroke-width:0.9022556390977443;"/><text fill="#000000" font-family="sans-serif" font-size="11.7293" lengthAdjust="spacing" textLength="50.5263" x="196.6917" y="171.2197">exception</text></g><!--link AssignLabels to Compile--><g id="link_AssignLabels_Compile"><path d="M266.5624,114.5865 C295.9759,114.5865 334.403,114.5865 361.218,114.5865 " fill="none" id="AssignLabels-to-Compile" style="stroke:#181818;stroke-width:0.9022556390977443;"/><polygon fill="#181818" points="365.7474,114.5865,357.6271,110.9774,361.2361,114.5865,357.6271,118.1955,365.7474,114.5865" style="stroke:#181818;stroke-width:0.9022556390977443;"/><text fill="#000000" font-family="sans-serif" font-size="11.7293" lengthAdjust="spacing" textLength="66.7669" x="282.6316" y="108.9641">no-exception</text></g><!--link AssignLabels to Exit1--><g id="link_AssignLabels_Exit1"><path d="M234.7489,132.7218 C243.0496,145.0105 255.1579,161.5218 267.9699,174.1353 C276.7218,182.7609 287.0977,191.0617 297.0226,198.2977 " fill="none" id="AssignLabels-to-Exit1" style="stroke:#181818;stroke-width:0.9022556390977443;"/><polygon fill="#181818" points="300.9383,201.1218,296.4665,193.4428,297.2805,198.4814,292.2419,199.2954,300.9383,201.1218" style="stroke:#181818;stroke-width:0.9022556390977443;"/><text fill="#000000" font-family="sans-serif" font-size="11.7293" lengthAdjust="spacing" textLength="50.5263" x="268.8722" y="171.2197">exception</text></g><!--link Compile to WriteFile--><g id="link_Compile_WriteFile"><path d="M421.0917,114.5865 C447.4647,114.5865 487.2541,114.5865 515.7203,114.5865 " fill="none" id="Compile-to-WriteFile" style="stroke:#181818;stroke-width:0.9022556390977443;"/><polygon fill="#181818" points="520.5474,114.5865,512.4271,110.9774,516.0361,114.5865,512.4271,118.1955,520.5474,114.5865" style="stroke:#181818;stroke-width:0.9022556390977443;"/><text fill="#000000" font-family="sans-serif" font-size="11.7293" lengthAdjust="spacing" textLength="66.7669" x="437.3684" y="108.9641">no-exception</text></g><!--link Compile to Exit1--><g id="link_Compile_Exit1"><path d="M365.594,127.9759 C352.9083,135.2662 339.1489,145.7955 332.0301,159.6992 C326.3368,170.8241 326.2376,184.5474 327.8977,196.3579 " fill="none" id="Compile-to-Exit1" style="stroke:#181818;stroke-width:0.9022556390977443;"/><polygon fill="#181818" points="328.6376,200.9504,330.9029,192.3578,327.9168,196.497,323.7775,193.511,328.6376,200.9504" style="stroke:#181818;stroke-width:0.9022556390977443;"/><text fill="#000000" font-family="sans-serif" font-size="11.7293" lengthAdjust="spacing" textLength="50.5263" x="332.9323" y="171.2197">exception</text></g><!--link WriteFile to Exit0--><g id="link_WriteFile_Exit0"><path d="M539.5038,132.7398 C527.6662,151.5248 508.7278,181.5789 496.006,201.7534 " fill="none" id="WriteFile-to-Exit0" style="stroke:#181818;stroke-width:0.9022556390977443;"/><polygon fill="#181818" points="493.5519,205.6511,500.9401,200.7136,495.9614,201.8372,494.8378,196.8585,493.5519,205.6511" style="stroke:#181818;stroke-width:0.9022556390977443;"/><text fill="#000000" font-family="sans-serif" font-size="11.7293" lengthAdjust="spacing" textLength="66.7669" x="520.6015" y="171.2197">no-exception</text></g><!--link WriteFile to Exit1--><g id="link_WriteFile_Exit1"><path d="M520.4662,128.8421 C501.5098,137.4135 476.5534,148.9263 454.7368,159.6992 C429.4015,172.2135 401.4406,186.8752 378.8932,198.9203 " fill="none" id="WriteFile-to-Exit1" style="stroke:#181818;stroke-width:0.9022556390977443;"/><polygon fill="#181818" points="374.7429,201.1398,383.6059,200.4985,378.7223,199.0149,380.2059,194.1313,374.7429,201.1398" style="stroke:#181818;stroke-width:0.9022556390977443;"/><text fill="#000000" font-family="sans-serif" font-size="11.7293" lengthAdjust="spacing" textLength="50.5263" x="455.6391" y="171.2197">exception</text></g><!--link *start* to ReadFile--><g id="link_*start*_ReadFile"><path d="M51.4286,23.7203 C51.4286,38.6617 51.4286,70.3398 51.4286,91.8226 " fill="none" id="*start*-to-ReadFile" style="stroke:#181818;stroke-width:0.9022556390977443;"/><polygon fill="#181818" points="51.4286,96.5143,55.0376,88.394,51.4286,92.003,47.8195,88.394,51.4286,96.5143" style="stroke:#181818;stroke-width:0.9022556390977443;"/></g><!--link Exit1 to *end*--><g id="link_Exit1_*end*"><path d="M353.1789,246.5143 C368.0211,264.1083 388.1955,288.018 399.4105,301.3173 " fill="none" id="Exit1-to-*end*" style="stroke:#181818;stroke-width:0.9022556390977443;"/><polygon fill="#181818" points="402.3248,304.7639,399.8332,296.2342,399.4102,301.3206,394.3238,300.8975,402.3248,304.7639" style="stroke:#181818;stroke-width:0.9022556390977443;"/></g><!--link Exit0 to *end*--><g id="link_Exit0_*end*"><path d="M467.5489,242.1925 C452.2376,259.9038 429.1038,286.6556 416.5985,301.1278 " fill="none" id="Exit0-to-*end*" style="stroke:#181818;stroke-width:0.9022556390977443;"/><polygon fill="#181818" points="413.3684,304.8632,421.4003,301.0614,416.3107,301.4434,415.9287,296.3538,413.3684,304.8632" style="stroke:#181818;stroke-width:0.9022556390977443;"/></g><!--SRC=[TP1DImCn48Rl-HLp4uIusuk77WGH2uAdUl0W7iRDi1d85yd8LiN_xcxRNIbDSvjvd_T9o9KLIMNTDCbXa4_lRhheco8ef0rZdz4hLJfq1BTj2mCRiUDYok4fi30w_aRX6E17mNWEqPRGRDZHVZKFe3FtLlGTt9V2VNZ63t85rX2Yfbr7QT9SQ3pkM5OZUigTU1Rs8VeqbIlYUg4kdpKBzffPQ7F1V4RNfVyERU8GZbnRCzRHSwNwLUhj-XtqI2p_hcPMmukD0r3ECOEdKh2dOpWLng8wl62UB1i2yac-m53fCkzl-WC0]--></g></svg>