<?xml version="1.0" encoding="us-ascii" standalone="no"?><svg xmlns="http://www.w3.org/2000/svg" xmlns:xlink="http://www.w3.org/1999/xlink" contentStyleType="text/css" height="633.0171px" preserveAspectRatio="none" style="width:601px;height:633px;background:#FFFFFF;" version="1.1" viewBox="0 0 601 633" width="601.1385px" zoomAndPan="magnify"><defs/><g><!--cluster Simulation--><g id="cluster_Simulation"><path d="M22.2011,83.112 L539.0892,83.112 A14.2315,14.2315 0 0 1 553.3207,97.3435 L553.3207,106.6117 L7.9696,106.6117 L7.9696,97.3435 A14.2315,14.2315 0 0 1 22.2011,83.112 " fill="#F1F1F1" style="stroke:#F1F1F1;stroke-width:1.1385199240986716;"/><rect fill="none" height="543.074" rx="14.2315" ry="14.2315" style="stroke:#181818;stroke-width:0.5692599620493358;" width="545.351" x="7.9696" y="83.112"/><line style="stroke:#181818;stroke-width:0.5692599620493358;" x1="7.9696" x2="553.3207" y1="106.6117" y2="106.6117"/><text fill="#000000" font-family="sans-serif" font-size="15.9393" lengthAdjust="spacing" textLength="74.0038" x="243.6433" y="102.0954">Simulation</text></g><!--cluster Simulate--><g id="cluster_Simulate"><path d="M181.5939,364.3264 L393.3586,364.3264 A14.2315,14.2315 0 0 1 407.5901,378.5579 L407.5901,387.8261 L167.3624,387.8261 L167.3624,378.5579 A14.2315,14.2315 0 0 1 181.5939,364.3264 " fill="#F1F1F1" style="stroke:#F1F1F1;stroke-width:1.1385199240986716;"/><rect fill="none" height="234.5351" rx="14.2315" ry="14.2315" style="stroke:#181818;stroke-width:0.5692599620493358;" width="240.2277" x="167.3624" y="364.3264"/><line style="stroke:#181818;stroke-width:0.5692599620493358;" x1="167.3624" x2="407.5901" y1="387.8261" y2="387.8261"/><text fill="#000000" font-family="sans-serif" font-size="15.9393" lengthAdjust="spacing" textLength="61.4801" x="256.7362" y="383.3099">Simulate</text></g><rect fill="#F1F1F1" height="45.5408" rx="14.2315" ry="14.2315" style="stroke:#181818;stroke-width:0.5692599620493358;" width="122.9602" x="26.186" y="127.5142"/><text fill="#000000" font-family="sans-serif" font-size="15.9393" lengthAdjust="spacing" textLength="111.575" x="31.8786" y="155.8105">ConstructStage</text><rect fill="#F1F1F1" height="45.5408" rx="14.2315" ry="14.2315" style="stroke:#181818;stroke-width:0.5692599620493358;" width="76.2808" x="189.5636" y="127.5142"/><text fill="#000000" font-family="sans-serif" font-size="15.9393" lengthAdjust="spacing" textLength="64.8956" x="195.2562" y="155.8105">ReadFile</text><rect fill="#F1F1F1" height="45.5408" rx="14.2315" ry="14.2315" style="stroke:#181818;stroke-width:0.5692599620493358;" width="122.9602" x="242.5047" y="265.2751"/><text fill="#000000" font-family="sans-serif" font-size="15.9393" lengthAdjust="spacing" textLength="111.575" x="248.1973" y="293.5714">CopyInstruction</text><g id="Simulation.Exit1"><rect fill="#F1F1F1" height="56.926" rx="14.2315" ry="14.2315" style="stroke:#181818;stroke-width:0.5692599620493358;" width="162.8083" x="371.7268" y="121.8216"/><line style="stroke:#181818;stroke-width:0.5692599620493358;" x1="371.7268" x2="534.5351" y1="151.014" y2="151.014"/><text fill="#000000" font-family="sans-serif" font-size="15.9393" lengthAdjust="spacing" textLength="34.1556" x="436.0531" y="141.9436">Exit1</text><text fill="#000000" font-family="sans-serif" font-size="13.6622" lengthAdjust="spacing" textLength="140.038" x="377.4194" y="169.0747">- Show error message</text></g><rect fill="#F1F1F1" height="45.5408" rx="14.2315" ry="14.2315" style="stroke:#181818;stroke-width:0.5692599620493358;" width="56.926" x="473.6243" y="403.0361"/><text fill="#000000" font-family="sans-serif" font-size="15.9393" lengthAdjust="spacing" textLength="34.1556" x="485.0095" y="431.3323">Exit0</text><rect fill="#F1F1F1" height="45.5408" rx="14.2315" ry="14.2315" style="stroke:#181818;stroke-width:0.5692599620493358;" width="56.926" x="311.9545" y="535.1044"/><text fill="#000000" font-family="sans-serif" font-size="15.9393" lengthAdjust="spacing" textLength="40.9867" x="319.9241" y="563.4006">Fetch</text><rect fill="#F1F1F1" height="45.5408" rx="14.2315" ry="14.2315" style="stroke:#181818;stroke-width:0.5692599620493358;" width="81.9734" x="307.4004" y="403.0361"/><text fill="#000000" font-family="sans-serif" font-size="15.9393" lengthAdjust="spacing" textLength="70.5882" x="313.093" y="431.3323">PrintState</text><rect fill="#F1F1F1" height="45.5408" rx="14.2315" ry="14.2315" style="stroke:#181818;stroke-width:0.5692599620493358;" width="67.1727" x="200.9488" y="535.1044"/><text fill="#000000" font-family="sans-serif" font-size="15.9393" lengthAdjust="spacing" textLength="55.7875" x="206.6414" y="563.4006">Decode</text><rect fill="#F1F1F1" height="45.5408" rx="14.2315" ry="14.2315" style="stroke:#181818;stroke-width:0.5692599620493358;" width="80.8349" x="186.148" y="403.0361"/><text fill="#000000" font-family="sans-serif" font-size="15.9393" lengthAdjust="spacing" textLength="69.4497" x="191.8406" y="431.3323">Execution</text><ellipse cx="87.666" cy="18.2163" fill="#181818" rx="11.3852" ry="11.3852" style="stroke:none;stroke-width:1.1385199240986716;"/><ellipse cx="582.9222" cy="288.0455" fill="none" rx="11.3852" ry="11.3852" style="stroke:#181818;stroke-width:1.1385199240986716;"/><ellipse cx="583.4915" cy="288.6148" fill="#181818" rx="6.8311" ry="6.8311" style="stroke:none;stroke-width:1.1385199240986716;"/><!--link ConstructStage to ReadFile--><g id="link_ConstructStage_ReadFile"><path d="M149.4763,150.2846 C160.8387,150.2846 172.2011,150.2846 183.5636,150.2846 " fill="none" id="ConstructStage-to-ReadFile" style="stroke:#181818;stroke-width:1.1385199240986716;"/><polygon fill="#181818" points="189.5066,150.2846,179.26,145.7306,183.814,150.2846,179.26,154.8387,189.5066,150.2846" style="stroke:#181818;stroke-width:1.1385199240986716;"/></g><!--link ReadFile to CopyInstruction--><g id="link_ReadFile_CopyInstruction"><path d="M239.9545,173.1917 C253.2524,196.7932 274.4744,234.5009 288.8083,259.9583 " fill="none" id="ReadFile-to-CopyInstruction" style="stroke:#181818;stroke-width:1.1385199240986716;"/><polygon fill="#181818" points="291.7571,265.1954,290.6906,254.0332,288.9609,260.237,282.7571,258.5072,291.7571,265.1954" style="stroke:#181818;stroke-width:1.1385199240986716;"/><text fill="#000000" font-family="sans-serif" font-size="14.8008" lengthAdjust="spacing" textLength="84.2505" x="270.9677" y="227.4405">no-exception</text></g><!--link ReadFile to Exit1--><g id="link_ReadFile_Exit1"><path d="M265.9469,150.2846 C293.26,150.2846 331.1271,150.2846 365.6698,150.2846 " fill="none" id="ReadFile-to-Exit1" style="stroke:#181818;stroke-width:1.1385199240986716;"/><polygon fill="#181818" points="371.6243,150.2846,361.3776,145.7306,365.9317,150.2846,361.3776,154.8387,371.6243,150.2846" style="stroke:#181818;stroke-width:1.1385199240986716;"/><text fill="#000000" font-family="sans-serif" font-size="14.8008" lengthAdjust="spacing" textLength="63.7571" x="286.907" y="143.19">exception</text></g><!--link CopyInstruction to PrintState--><g id="link_CopyInstruction_PrintState"><path d="M311.1233,310.9526 C318.8197,334.4516 331.1044,371.9431 339.4497,397.4004 " fill="none" id="CopyInstruction-to-PrintState" style="stroke:#181818;stroke-width:1.1385199240986716;"/><polygon fill="#181818" points="341.2713,402.9564,342.4119,391.8014,339.5005,397.5462,333.7556,394.6348,341.2713,402.9564" style="stroke:#181818;stroke-width:1.1385199240986716;"/></g><!--link PrintState to Fetch--><g id="link_PrintState_Fetch"><path d="M347.055,448.6679 C345.7002,470.7552 343.5939,505.0588 342.1139,529.0702 " fill="none" id="PrintState-to-Fetch" style="stroke:#181818;stroke-width:1.1385199240986716;"/><polygon fill="#181818" points="341.7609,534.945,346.9222,524.9903,342.1028,529.2626,337.8305,524.4433,341.7609,534.945" style="stroke:#181818;stroke-width:1.1385199240986716;"/><text fill="#000000" font-family="sans-serif" font-size="14.8008" lengthAdjust="spacing" textLength="44.4023" x="344.9715" y="497.2697">no-halt</text></g><!--link PrintState to Exit0--><g id="link_PrintState_Exit0"><path d="M389.5787,425.8065 C414,425.8065 444.6148,425.8065 467.7268,425.8065 " fill="none" id="PrintState-to-Exit0" style="stroke:#181818;stroke-width:1.1385199240986716;"/><polygon fill="#181818" points="473.4421,425.8065,463.1954,421.2524,467.7495,425.8065,463.1954,430.3605,473.4421,425.8065" style="stroke:#181818;stroke-width:1.1385199240986716;"/><text fill="#000000" font-family="sans-serif" font-size="14.8008" lengthAdjust="spacing" textLength="23.9089" x="419.5446" y="418.7118">halt</text></g><!--reverse link Decode to Fetch--><g id="link_Decode_Fetch"><path d="M274.2011,557.8748 C286.7135,557.8748 299.2258,557.8748 311.7381,557.8748 " fill="none" id="Decode-backto-Fetch" style="stroke:#181818;stroke-width:1.1385199240986716;"/><polygon fill="#181818" points="268.4516,557.8748,278.6983,562.4288,274.1442,557.8748,278.6983,553.3207,268.4516,557.8748" style="stroke:#181818;stroke-width:1.1385199240986716;"/></g><!--reverse link Execution to Decode--><g id="link_Execution_Decode"><path d="M228.2619,454.5313 C229.7306,478.5313 231.8368,512.8235 233.1917,534.945 " fill="none" id="Execution-backto-Decode" style="stroke:#181818;stroke-width:1.1385199240986716;"/><polygon fill="#181818" points="227.8975,448.6679,223.9971,459.1808,228.2557,454.3493,233.0872,458.6078,227.8975,448.6679" style="stroke:#181818;stroke-width:1.1385199240986716;"/></g><!--link Execution to PrintState--><g id="link_Execution_PrintState"><path d="M267.0171,425.8065 C278.4706,425.8065 289.9355,425.8065 301.389,425.8065 " fill="none" id="Execution-to-PrintState" style="stroke:#181818;stroke-width:1.1385199240986716;"/><polygon fill="#181818" points="307.3776,425.8065,297.1309,421.2524,301.685,425.8065,297.1309,430.3605,307.3776,425.8065" style="stroke:#181818;stroke-width:1.1385199240986716;"/></g><!--link *start* to ConstructStage--><g id="link_*start*_ConstructStage"><path d="M87.666,29.9772 C87.666,49.7647 87.666,92.8235 87.666,121.4004 " fill="none" id="*start*-to-ConstructStage" style="stroke:#181818;stroke-width:1.1385199240986716;"/><polygon fill="#181818" points="87.666,127.2638,92.2201,117.0171,87.666,121.5712,83.112,117.0171,87.666,127.2638" style="stroke:#181818;stroke-width:1.1385199240986716;"/></g><!--link Exit1 to *end*--><g id="link_Exit1_*end*"><path d="M479.3966,178.8387 C507.4953,208.167 550.7818,253.3548 571.3321,274.8046 " fill="none" id="Exit1-to-*end*" style="stroke:#181818;stroke-width:1.1385199240986716;"/><polygon fill="#181818" points="575.5787,279.2448,571.787,268.6922,571.6439,275.1311,565.205,274.988,575.5787,279.2448" style="stroke:#181818;stroke-width:1.1385199240986716;"/></g><!--reverse link *end* to Exit0--><g id="link_*end*_Exit0"><path d="M574.4175,303.4383 C560.3112,327.074 531.9734,374.5844 515.26,402.592 " fill="none" id="*end*-backto-Exit0" style="stroke:#181818;stroke-width:1.1385199240986716;"/><polygon fill="#181818" points="577.3662,298.4972,568.2051,304.9631,574.4494,303.3857,576.0268,309.63,577.3662,298.4972" style="stroke:#181818;stroke-width:1.1385199240986716;"/></g><!--SRC=[PL2xRiGW4EpvYkqYHIBdD2ckI7Evaz95SHcbG7XZaC1Oi9PzYkxV0yQlSsXWPsPdbtbGH6qu7Wwj4GrrrZn9Pm-1126ljAYzi8m5AGp2Ir50hojIB2990AMsdH6aNGE_3EAvWt42L-A29DKE-_2weJ8zTyGRIbVjmVE0iai3H_p6nklaca2-ayccHk1UruhuAtoYg2xQP8-v01wPasklxrDJslu8ZUCuI6mNxrK_svq7JSzHUg_RMoNxtP_M4dZb-YOgnYJoM2KC_PDjPnPHjuXo8pVua-XDHla9l6l7jcrCIxNwRZQyZPgln-yfcMsMZCsVvb0grmDwxpnO326ncKnjiPtbNVC2gLOwxeEsfIjK6AJNOsX_]--></g></svg>