<?xml version="1.0" encoding="us-ascii" standalone="no"?><svg xmlns="http://www.w3.org/2000/svg" xmlns:xlink="http://www.w3.org/1999/xlink" contentStyleType="text/css" height="430.08px" preserveAspectRatio="none" style="width:606px;height:430px;background:#FFFFFF;" version="1.1" viewBox="0 0 606 430" width="606.72px" zoomAndPan="magnify"><defs/><g><!--cluster Initialization--><g id="cluster_Initialization"><path d="M18.72,70.08 L582.24,70.08 A12,12 0 0 1 594.24,82.08 L594.24,89.895 L6.72,89.895 L6.72,82.08 A12,12 0 0 1 18.72,70.08 " fill="#F1F1F1" style="stroke:#F1F1F1;stroke-width:0.96;"/><rect fill="none" height="96" rx="12" ry="12" style="stroke:#181818;stroke-width:0.48;" width="587.52" x="6.72" y="70.08"/><line style="stroke:#181818;stroke-width:0.48;" x1="6.72" x2="594.24" y1="89.895" y2="89.895"/><text fill="#000000" font-family="sans-serif" font-size="13.44" lengthAdjust="spacing" textLength="69.12" x="265.92" y="86.0869">Initialization</text></g><!--cluster Simulation--><g id="cluster_Simulation"><path d="M266.4,212.16 L444,212.16 A12,12 0 0 1 456,224.16 L456,231.975 L254.4,231.975 L254.4,224.16 A12,12 0 0 1 266.4,212.16 " fill="#F1F1F1" style="stroke:#F1F1F1;stroke-width:0.96;"/><rect fill="none" height="212.16" rx="12" ry="12" style="stroke:#181818;stroke-width:0.48;" width="201.6" x="254.4" y="212.16"/><line style="stroke:#181818;stroke-width:0.48;" x1="254.4" x2="456" y1="231.975" y2="231.975"/><text fill="#000000" font-family="sans-serif" font-size="13.44" lengthAdjust="spacing" textLength="62.4" x="324" y="228.1669">Simulation</text></g><rect fill="#F1F1F1" height="38.4" rx="12" ry="12" style="stroke:#181818;stroke-width:0.48;" width="82.56" x="22.08" y="107.52"/><text fill="#000000" font-family="sans-serif" font-size="13.44" lengthAdjust="spacing" textLength="72.96" x="26.88" y="131.3794">RetrieveFile</text><g id="Initialization.Assemble"><rect fill="#F1F1F1" height="48" rx="12" ry="12" style="stroke:#181818;stroke-width:0.48;" width="79.68" x="272.16" y="102.72"/><line style="stroke:#181818;stroke-width:0.48;" x1="272.16" x2="351.84" y1="127.335" y2="127.335"/><text fill="#000000" font-family="sans-serif" font-size="13.44" lengthAdjust="spacing" textLength="58.56" x="282.72" y="119.6869">Assemble</text><text fill="#000000" font-family="sans-serif" font-size="11.52" lengthAdjust="spacing" textLength="60.48" x="276.96" y="142.5638">- Print State</text></g><rect fill="#F1F1F1" height="38.4" rx="12" ry="12" style="stroke:#181818;stroke-width:0.48;" width="99.84" x="138.24" y="107.52"/><text fill="#000000" font-family="sans-serif" font-size="13.44" lengthAdjust="spacing" textLength="90.24" x="143.04" y="131.3794">ConstructState</text><g id="Initialization.Exit1"><rect fill="#F1F1F1" height="48" rx="12" ry="12" style="stroke:#181818;stroke-width:0.48;" width="137.28" x="441.12" y="102.72"/><line style="stroke:#181818;stroke-width:0.48;" x1="441.12" x2="578.4" y1="127.335" y2="127.335"/><text fill="#000000" font-family="sans-serif" font-size="13.44" lengthAdjust="spacing" textLength="28.8" x="495.36" y="119.6869">Exit1</text><text fill="#000000" font-family="sans-serif" font-size="11.52" lengthAdjust="spacing" textLength="118.08" x="445.92" y="142.5638">- Show error message</text></g><g id="Simulation.Fetch"><rect fill="#F1F1F1" height="48" rx="12" ry="12" style="stroke:#181818;stroke-width:0.48;" width="79.68" x="270.24" y="244.8"/><line style="stroke:#181818;stroke-width:0.48;" x1="270.24" x2="349.92" y1="269.415" y2="269.415"/><text fill="#000000" font-family="sans-serif" font-size="13.44" lengthAdjust="spacing" textLength="34.56" x="292.8" y="261.7669">Fetch</text><text fill="#000000" font-family="sans-serif" font-size="11.52" lengthAdjust="spacing" textLength="60.48" x="275.04" y="284.6438">- Print State</text></g><rect fill="#F1F1F1" height="38.4" rx="12" ry="12" style="stroke:#181818;stroke-width:0.48;" width="56.64" x="383.52" y="249.6"/><text fill="#000000" font-family="sans-serif" font-size="13.44" lengthAdjust="spacing" textLength="47.04" x="388.32" y="273.4594">Decode</text><rect fill="#F1F1F1" height="38.4" rx="12" ry="12" style="stroke:#181818;stroke-width:0.48;" width="68.16" x="348" y="370.56"/><text fill="#000000" font-family="sans-serif" font-size="13.44" lengthAdjust="spacing" textLength="58.56" x="352.8" y="394.4194">Execution</text><ellipse cx="63.36" cy="15.36" fill="#181818" rx="9.6" ry="9.6" style="stroke:none;stroke-width:0.96;"/><g id="Exit0"><rect fill="#F1F1F1" height="48" rx="12" ry="12" style="stroke:#181818;stroke-width:0.48;" width="79.68" x="471.84" y="365.76"/><line style="stroke:#181818;stroke-width:0.48;" x1="471.84" x2="551.52" y1="390.375" y2="390.375"/><text fill="#000000" font-family="sans-serif" font-size="13.44" lengthAdjust="spacing" textLength="28.8" x="497.28" y="382.7269">Exit0</text><text fill="#000000" font-family="sans-serif" font-size="11.52" lengthAdjust="spacing" textLength="60.48" x="476.64" y="405.6038">- Print State</text></g><ellipse cx="509.76" cy="268.8" fill="none" rx="9.6" ry="9.6" style="stroke:#181818;stroke-width:0.96;"/><ellipse cx="510.24" cy="269.28" fill="#181818" rx="5.76" ry="5.76" style="stroke:none;stroke-width:0.96;"/><!--link RetrieveFile to ConstructState--><g id="link_RetrieveFile_ConstructState"><path d="M104.7936,126.72 C114.2304,126.72 123.6576,126.72 133.0848,126.72 " fill="none" id="RetrieveFile-to-ConstructState" style="stroke:#181818;stroke-width:0.96;"/><polygon fill="#181818" points="138.0096,126.72,129.3696,122.88,133.2096,126.72,129.3696,130.56,138.0096,126.72" style="stroke:#181818;stroke-width:0.96;"/></g><!--link ConstructState to Assemble--><g id="link_ConstructState_Assemble"><path d="M238.224,126.72 C247.7952,126.72 257.3664,126.72 266.9376,126.72 " fill="none" id="ConstructState-to-Assemble" style="stroke:#181818;stroke-width:0.96;"/><polygon fill="#181818" points="271.9488,126.72,263.3088,122.88,267.1488,126.72,263.3088,130.56,271.9488,126.72" style="stroke:#181818;stroke-width:0.96;"/></g><!--link Assemble to Exit1--><g id="link_Assemble_Exit1"><path d="M352.0224,126.72 C376.128,126.72 407.5872,126.72 436.0608,126.72 " fill="none" id="Assemble-to-Exit1" style="stroke:#181818;stroke-width:0.96;"/><polygon fill="#181818" points="440.9664,126.72,432.3264,122.88,436.1664,126.72,432.3264,130.56,440.9664,126.72" style="stroke:#181818;stroke-width:0.96;"/><text fill="#000000" font-family="sans-serif" font-size="12.48" lengthAdjust="spacing" textLength="53.76" x="369.6" y="120.7378">exception</text></g><!--link *start* to RetrieveFile--><g id="link_*start*_RetrieveFile"><path d="M63.36,25.2768 C63.36,41.9616 63.36,78.2688 63.36,102.3648 " fill="none" id="*start*-to-RetrieveFile" style="stroke:#181818;stroke-width:0.96;"/><polygon fill="#181818" points="63.36,107.3088,67.2,98.6688,63.36,102.5088,59.52,98.6688,63.36,107.3088" style="stroke:#181818;stroke-width:0.96;"/></g><!--link Assemble to Fetch--><g id="link_Assemble_Fetch"><path d="M311.6832,150.8256 C311.3472,175.1712 310.8288,213.504 310.464,239.6064 " fill="none" id="Assemble-to-Fetch" style="stroke:#181818;stroke-width:0.96;"/><polygon fill="#181818" points="310.3968,244.6656,314.3598,236.0813,310.4654,239.8661,306.6806,235.9716,310.3968,244.6656" style="stroke:#181818;stroke-width:0.96;"/><text fill="#000000" font-family="sans-serif" font-size="12.48" lengthAdjust="spacing" textLength="71.04" x="312" y="193.6978">no-exception</text></g><!--link Fetch to Decode--><g id="link_Fetch_Decode"><path d="M350.2272,268.8 C359.6544,268.8 369.0816,268.8 378.5088,268.8 " fill="none" id="Fetch-to-Decode" style="stroke:#181818;stroke-width:0.96;"/><polygon fill="#181818" points="383.4432,268.8,374.8032,264.96,378.6432,268.8,374.8032,272.64,383.4432,268.8" style="stroke:#181818;stroke-width:0.96;"/></g><!--link Decode to Execution--><g id="link_Decode_Execution"><path d="M407.2512,288.096 C402.0672,308.832 393.6192,342.6528 387.9552,365.3088 " fill="none" id="Decode-to-Execution" style="stroke:#181818;stroke-width:0.96;"/><polygon fill="#181818" points="386.7168,370.2432,392.5221,362.7804,387.8713,365.5841,385.0676,360.9332,386.7168,370.2432" style="stroke:#181818;stroke-width:0.96;"/></g><!--link Execution to Fetch--><g id="link_Execution_Fetch"><path d="M369.2352,370.32 C362.5728,360.528 354.3936,348.2208 347.52,336.96 C339.7056,324.1728 331.5552,309.6768 324.8544,297.4368 " fill="none" id="Execution-to-Fetch" style="stroke:#181818;stroke-width:0.96;"/><polygon fill="#181818" points="322.4544,293.04,323.2098,302.4647,324.7481,297.2565,329.9562,298.7948,322.4544,293.04" style="stroke:#181818;stroke-width:0.96;"/><text fill="#000000" font-family="sans-serif" font-size="12.48" lengthAdjust="spacing" textLength="37.44" x="348.48" y="333.8578">no-halt</text></g><!--link Execution to Exit0--><g id="link_Execution_Exit0"><path d="M416.4672,389.76 C431.8272,389.76 450.1344,389.76 466.5696,389.76 " fill="none" id="Execution-to-Exit0" style="stroke:#181818;stroke-width:0.96;"/><polygon fill="#181818" points="471.6096,389.76,462.9696,385.92,466.8096,389.76,462.9696,393.6,471.6096,389.76" style="stroke:#181818;stroke-width:0.96;"/><text fill="#000000" font-family="sans-serif" font-size="12.48" lengthAdjust="spacing" textLength="20.16" x="433.92" y="383.7778">halt</text></g><!--reverse link *end* to Exit0--><g id="link_*end*_Exit0"><path d="M509.9808,283.6608 C510.3072,303.792 510.912,341.28 511.3056,365.6256 " fill="none" id="*end*-backto-Exit0" style="stroke:#181818;stroke-width:0.96;"/><polygon fill="#181818" points="509.904,278.7072,506.2127,287.4117,509.9863,283.5065,513.8915,287.2801,509.904,278.7072" style="stroke:#181818;stroke-width:0.96;"/></g><!--link Exit1 to *end*--><g id="link_Exit1_*end*"><path d="M509.76,150.8256 C509.76,180.1728 509.76,229.8432 509.76,253.9296 " fill="none" id="Exit1-to-*end*" style="stroke:#181818;stroke-width:0.96;"/><polygon fill="#181818" points="509.76,258.9312,513.6,250.2912,509.76,254.1312,505.92,250.2912,509.76,258.9312" style="stroke:#181818;stroke-width:0.96;"/></g><!--SRC=[RP2xJiGm44NxVCLqI4XcGqEn1HA2NMaxH4f4OPnHF98VaJqX0SI_uxmJWIlFtF6PUtsbcUjuF1ng8nqtrjmeRm-H9QCeILP1sYoBIXg4kpo7bahMgT7hS77490rzIIRlu3k3T4Rf1JaGVk2P30xjXnZHlYVA4GGy1t8CHJyvYDjf484gpU8U7hsB71h5w-2-jOxEzFsgHJvrnBTfCtOAwzvhzfDbhzTl89AuipebAyWsPflgZApqlzxNRQLlNUBDeywBTT_AM4mzeVBbo1YlWvjJXwfPdYpLe6t8MXfE8VfW-HzRSrm1XVOjO0W-WCKOPTMB2tBxFJrbW8w5QEeaf2-QO6AgD2MVQ6l-X1AZ2ZJ4-mK0]--></g></svg>